<svg xmlns="http://www.w3.org/2000/svg" xmlns:xlink="http://www.w3.org/1999/xlink" width="1231" zoomAndPan="magnify" viewBox="0 0 923.25 290.999983" height="388" preserveAspectRatio="xMidYMid meet" version="1.0"><defs><g/><clipPath id="6b488ebfdb"><path d="M 0 0.117188 L 922.5 0.117188 L 922.5 290.882812 L 0 290.882812 Z M 0 0.117188 " clip-rule="nonzero"/></clipPath><clipPath id="d9a59b36d9"><path d="M 6.875 23.804688 L 248.914062 23.804688 L 248.914062 266.789062 L 6.875 266.789062 Z M 6.875 23.804688 " clip-rule="nonzero"/></clipPath><clipPath id="33c7fc5a03"><path d="M 26.359375 23.804688 L 229.429688 23.804688 C 240.191406 23.804688 248.914062 32.527344 248.914062 43.289062 L 248.914062 247.046875 C 248.914062 257.808594 240.191406 266.53125 229.429688 266.53125 L 26.359375 266.53125 C 15.601562 266.53125 6.875 257.808594 6.875 247.046875 L 6.875 43.289062 C 6.875 32.527344 15.601562 23.804688 26.359375 23.804688 Z M 26.359375 23.804688 " clip-rule="nonzero"/></clipPath></defs><g clip-path="url(#6b488ebfdb)"><path fill="#ffffff" d="M 0 0.117188 L 922.5 0.117188 L 922.5 290.882812 L 0 290.882812 Z M 0 0.117188 " fill-opacity="1" fill-rule="nonzero"/></g><g clip-path="url(#d9a59b36d9)"><g clip-path="url(#33c7fc5a03)"><path fill="#737373" d="M 6.875 23.804688 L 248.914062 23.804688 L 248.914062 266.789062 L 6.875 266.789062 Z M 6.875 23.804688 " fill-opacity="1" fill-rule="nonzero"/></g></g><g fill="#ffffff" fill-opacity="1"><g transform="translate(29.820993, 181.557785)"><g><path d="M 35.6875 0 L 7.5 0 L 7.5 -67.203125 L 84.71875 -67.203125 L 84.71875 -50.578125 L 35.6875 -50.578125 L 35.6875 -40.03125 L 77.125 -40.03125 L 77.125 -27.109375 L 35.6875 -27.109375 Z M 35.6875 0 "/></g></g></g><g fill="#ffffff" fill-opacity="1"><g transform="translate(118.271422, 181.557785)"><g><path d="M 55.6875 0 L 7.5 0 L 7.5 -67.15625 L 56.703125 -67.15625 C 65.453125 -67.15625 72.648438 -66.753906 78.296875 -65.953125 C 83.953125 -65.160156 88.304688 -63.910156 91.359375 -62.203125 C 94.421875 -60.503906 96.5 -58.34375 97.59375 -55.71875 C 98.6875 -53.101562 99.234375 -49.96875 99.234375 -46.3125 C 99.140625 -43.4375 98.347656 -41.054688 96.859375 -39.171875 C 95.378906 -37.285156 93.644531 -35.878906 91.65625 -34.953125 C 89.675781 -34.035156 87.941406 -33.578125 86.453125 -33.578125 C 87.910156 -33.578125 89.625 -33.285156 91.59375 -32.703125 C 93.5625 -32.128906 95.472656 -31.296875 97.328125 -30.203125 C 99.191406 -29.109375 100.738281 -27.78125 101.96875 -26.21875 C 103.207031 -24.664062 103.828125 -22.890625 103.828125 -20.890625 C 103.828125 -18.265625 103.519531 -15.859375 102.90625 -13.671875 C 102.300781 -11.484375 101.082031 -9.546875 99.25 -7.859375 C 97.425781 -6.179688 94.734375 -4.753906 91.171875 -3.578125 C 87.617188 -2.410156 82.960938 -1.519531 77.203125 -0.90625 C 71.441406 -0.300781 64.269531 0 55.6875 0 Z M 54.09375 -39.34375 C 58.207031 -39.34375 61.394531 -39.539062 63.65625 -39.9375 C 65.925781 -40.34375 67.5 -40.957031 68.375 -41.78125 C 69.25 -42.613281 69.6875 -43.671875 69.6875 -44.953125 C 69.6875 -46.265625 69.25 -47.332031 68.375 -48.15625 C 67.5 -48.988281 65.925781 -49.597656 63.65625 -49.984375 C 61.394531 -50.378906 58.207031 -50.578125 54.09375 -50.578125 L 35.6875 -50.578125 L 35.6875 -39.34375 Z M 54.09375 -16.578125 C 58.300781 -16.578125 61.71875 -16.6875 64.34375 -16.90625 C 66.96875 -17.125 68.890625 -17.625 70.109375 -18.40625 C 71.328125 -19.1875 71.9375 -20.453125 71.9375 -22.203125 C 71.9375 -23.941406 71.328125 -25.207031 70.109375 -26 C 68.890625 -26.800781 66.96875 -27.300781 64.34375 -27.5 C 61.71875 -27.707031 58.300781 -27.8125 54.09375 -27.8125 L 35.6875 -27.8125 L 35.6875 -16.578125 Z M 54.09375 -16.578125 "/></g></g></g><g fill="#737373" fill-opacity="1"><g transform="translate(283.805719, 127.590024)"><g><path d="M 8.265625 -76.875 L 70.390625 -76.875 L 70.390625 -58.4375 L 32.96875 -58.4375 L 32.96875 -45.25 L 65.140625 -45.25 L 65.140625 -27.59375 L 32.96875 -27.59375 L 32.96875 0 L 8.265625 0 Z M 8.265625 -76.875 "/></g></g></g><g fill="#737373" fill-opacity="1"><g transform="translate(358.322557, 127.590024)"><g><path d="M 46.484375 -78.21875 C 59.742188 -78.21875 69.984375 -74.828125 77.203125 -68.046875 C 84.429688 -61.265625 88.046875 -51.394531 88.046875 -38.4375 C 88.046875 -25.476562 84.429688 -15.609375 77.203125 -8.828125 C 69.984375 -2.046875 59.742188 1.34375 46.484375 1.34375 C 33.222656 1.34375 23 -2.023438 15.8125 -8.765625 C 8.625 -15.515625 5.03125 -25.40625 5.03125 -38.4375 C 5.03125 -51.46875 8.625 -61.351562 15.8125 -68.09375 C 23 -74.84375 33.222656 -78.21875 46.484375 -78.21875 Z M 46.484375 -59.78125 C 41.191406 -59.78125 37.164062 -58.175781 34.40625 -54.96875 C 31.65625 -51.769531 30.28125 -47.453125 30.28125 -42.015625 L 30.28125 -34.859375 C 30.28125 -29.421875 31.65625 -25.097656 34.40625 -21.890625 C 37.164062 -18.691406 41.191406 -17.09375 46.484375 -17.09375 C 51.773438 -17.09375 55.816406 -18.691406 58.609375 -21.890625 C 61.398438 -25.097656 62.796875 -29.421875 62.796875 -34.859375 L 62.796875 -42.015625 C 62.796875 -47.453125 61.398438 -51.769531 58.609375 -54.96875 C 55.816406 -58.175781 51.773438 -59.78125 46.484375 -59.78125 Z M 46.484375 -59.78125 "/></g></g></g><g fill="#737373" fill-opacity="1"><g transform="translate(451.384809, 127.590024)"><g><path d="M 81.234375 -53.296875 C 81.234375 -48.609375 79.96875 -44.363281 77.4375 -40.5625 C 74.90625 -36.757812 71.21875 -33.960938 66.375 -32.171875 L 83.46875 0 L 55.75 0 L 42.125 -28.046875 L 32.96875 -28.046875 L 32.96875 0 L 8.265625 0 L 8.265625 -76.875 L 55.3125 -76.875 C 60.820312 -76.875 65.53125 -75.8125 69.4375 -73.6875 C 73.351562 -71.5625 76.296875 -68.691406 78.265625 -65.078125 C 80.242188 -61.472656 81.234375 -57.546875 81.234375 -53.296875 Z M 56.09375 -52.296875 C 56.09375 -54.304688 55.421875 -55.976562 54.078125 -57.3125 C 52.734375 -58.65625 51.09375 -59.328125 49.15625 -59.328125 L 32.96875 -59.328125 L 32.96875 -45.140625 L 49.15625 -45.140625 C 51.09375 -45.140625 52.734375 -45.828125 54.078125 -47.203125 C 55.421875 -48.585938 56.09375 -50.285156 56.09375 -52.296875 Z M 56.09375 -52.296875 "/></g></g></g><g fill="#737373" fill-opacity="1"><g transform="translate(538.302489, 127.590024)"><g><path d="M 46.921875 -78.21875 C 54.296875 -78.21875 60.925781 -77.097656 66.8125 -74.859375 C 72.695312 -72.628906 77.367188 -69.332031 80.828125 -64.96875 C 84.296875 -60.613281 86.03125 -55.304688 86.03125 -49.046875 L 62.453125 -49.046875 C 62.453125 -52.253906 61.035156 -54.84375 58.203125 -56.8125 C 55.378906 -58.789062 51.957031 -59.78125 47.9375 -59.78125 C 42.125 -59.78125 37.726562 -58.234375 34.75 -55.140625 C 31.769531 -52.046875 30.28125 -47.671875 30.28125 -42.015625 L 30.28125 -34.859375 C 30.28125 -29.203125 31.769531 -24.828125 34.75 -21.734375 C 37.726562 -18.640625 42.125 -17.09375 47.9375 -17.09375 C 51.957031 -17.09375 55.378906 -18.039062 58.203125 -19.9375 C 61.035156 -21.84375 62.453125 -24.285156 62.453125 -27.265625 L 45.03125 -27.265625 L 45.03125 -42.90625 L 86.03125 -42.90625 L 86.03125 0 L 73.296875 0 L 70.84375 -7.59375 C 63.84375 -1.632812 54.679688 1.34375 43.359375 1.34375 C 30.617188 1.34375 21.046875 -1.988281 14.640625 -8.65625 C 8.234375 -15.320312 5.03125 -25.25 5.03125 -38.4375 C 5.03125 -51.46875 8.660156 -61.351562 15.921875 -68.09375 C 23.179688 -74.84375 33.515625 -78.21875 46.921875 -78.21875 Z M 46.921875 -78.21875 "/></g></g></g><g fill="#737373" fill-opacity="1"><g transform="translate(631.36473, 127.590024)"><g><path d="M 9.390625 0 L 9.390625 -76.875 L 34.078125 -76.875 L 34.078125 0 Z M 9.390625 0 "/></g></g></g><g fill="#737373" fill-opacity="1"><g transform="translate(674.823558, 127.590024)"><g><path d="M 63.234375 0 L 30.953125 -37.3125 L 30.953125 0 L 8.265625 0 L 8.265625 -76.875 L 29.828125 -76.875 L 62.125 -39 L 62.125 -76.875 L 84.8125 -76.875 L 84.8125 0 Z M 63.234375 0 "/></g></g></g><g fill="#737373" fill-opacity="1"><g transform="translate(767.8858, 127.590024)"><g><path d="M 46.921875 -78.21875 C 54.296875 -78.21875 60.925781 -77.097656 66.8125 -74.859375 C 72.695312 -72.628906 77.367188 -69.332031 80.828125 -64.96875 C 84.296875 -60.613281 86.03125 -55.304688 86.03125 -49.046875 L 62.453125 -49.046875 C 62.453125 -52.253906 61.035156 -54.84375 58.203125 -56.8125 C 55.378906 -58.789062 51.957031 -59.78125 47.9375 -59.78125 C 42.125 -59.78125 37.726562 -58.234375 34.75 -55.140625 C 31.769531 -52.046875 30.28125 -47.671875 30.28125 -42.015625 L 30.28125 -34.859375 C 30.28125 -29.203125 31.769531 -24.828125 34.75 -21.734375 C 37.726562 -18.640625 42.125 -17.09375 47.9375 -17.09375 C 51.957031 -17.09375 55.378906 -18.039062 58.203125 -19.9375 C 61.035156 -21.84375 62.453125 -24.285156 62.453125 -27.265625 L 45.03125 -27.265625 L 45.03125 -42.90625 L 86.03125 -42.90625 L 86.03125 0 L 73.296875 0 L 70.84375 -7.59375 C 63.84375 -1.632812 54.679688 1.34375 43.359375 1.34375 C 30.617188 1.34375 21.046875 -1.988281 14.640625 -8.65625 C 8.234375 -15.320312 5.03125 -25.25 5.03125 -38.4375 C 5.03125 -51.46875 8.660156 -61.351562 15.921875 -68.09375 C 23.179688 -74.84375 33.515625 -78.21875 46.921875 -78.21875 Z M 46.921875 -78.21875 "/></g></g></g><g fill="#737373" fill-opacity="1"><g transform="translate(860.95865, 127.590024)"><g/></g></g><g fill="#737373" fill-opacity="1"><g transform="translate(283.805719, 237.033129)"><g><path d="M 59.4375 -76.875 C 63.3125 -76.875 66.867188 -76.070312 70.109375 -74.46875 C 73.347656 -72.863281 75.914062 -70.609375 77.8125 -67.703125 C 79.71875 -64.804688 80.671875 -61.566406 80.671875 -57.984375 C 80.671875 -48.523438 76.390625 -42.566406 67.828125 -40.109375 L 67.828125 -39.671875 C 77.578125 -37.429688 82.453125 -31.023438 82.453125 -20.453125 C 82.453125 -16.421875 81.460938 -12.859375 79.484375 -9.765625 C 77.515625 -6.679688 74.816406 -4.28125 71.390625 -2.5625 C 67.972656 -0.851562 64.210938 0 60.109375 0 L 8.265625 0 L 8.265625 -76.875 Z M 32.96875 -46.921875 L 49.9375 -46.921875 C 51.582031 -46.921875 52.941406 -47.5 54.015625 -48.65625 C 55.097656 -49.8125 55.640625 -51.25 55.640625 -52.96875 L 55.640625 -54.078125 C 55.640625 -55.710938 55.082031 -57.109375 53.96875 -58.265625 C 52.851562 -59.421875 51.507812 -60 49.9375 -60 L 32.96875 -60 Z M 32.96875 -17.875 L 51.734375 -17.875 C 53.367188 -17.875 54.726562 -18.453125 55.8125 -19.609375 C 56.894531 -20.765625 57.4375 -22.195312 57.4375 -23.90625 L 57.4375 -25.03125 C 57.4375 -26.738281 56.894531 -28.171875 55.8125 -29.328125 C 54.726562 -30.484375 53.367188 -31.0625 51.734375 -31.0625 L 32.96875 -31.0625 Z M 32.96875 -17.875 "/></g></g></g><g fill="#737373" fill-opacity="1"><g transform="translate(370.72341, 237.033129)"><g><path d="M 8.265625 -76.875 L 32.96875 -76.875 L 32.96875 -19.671875 L 72.40625 -19.671875 L 72.40625 0 L 8.265625 0 Z M 8.265625 -76.875 "/></g></g></g><g fill="#737373" fill-opacity="1"><g transform="translate(445.240247, 237.033129)"><g><path d="M 46.484375 -78.21875 C 59.742188 -78.21875 69.984375 -74.828125 77.203125 -68.046875 C 84.429688 -61.265625 88.046875 -51.394531 88.046875 -38.4375 C 88.046875 -25.476562 84.429688 -15.609375 77.203125 -8.828125 C 69.984375 -2.046875 59.742188 1.34375 46.484375 1.34375 C 33.222656 1.34375 23 -2.023438 15.8125 -8.765625 C 8.625 -15.515625 5.03125 -25.40625 5.03125 -38.4375 C 5.03125 -51.46875 8.625 -61.351562 15.8125 -68.09375 C 23 -74.84375 33.222656 -78.21875 46.484375 -78.21875 Z M 46.484375 -59.78125 C 41.191406 -59.78125 37.164062 -58.175781 34.40625 -54.96875 C 31.65625 -51.769531 30.28125 -47.453125 30.28125 -42.015625 L 30.28125 -34.859375 C 30.28125 -29.421875 31.65625 -25.097656 34.40625 -21.890625 C 37.164062 -18.691406 41.191406 -17.09375 46.484375 -17.09375 C 51.773438 -17.09375 55.816406 -18.691406 58.609375 -21.890625 C 61.398438 -25.097656 62.796875 -29.421875 62.796875 -34.859375 L 62.796875 -42.015625 C 62.796875 -47.453125 61.398438 -51.769531 58.609375 -54.96875 C 55.816406 -58.175781 51.773438 -59.78125 46.484375 -59.78125 Z M 46.484375 -59.78125 "/></g></g></g><g fill="#737373" fill-opacity="1"><g transform="translate(538.302489, 237.033129)"><g><path d="M 44.921875 -78.21875 C 56.316406 -78.21875 65.328125 -75.367188 71.953125 -69.671875 C 78.585938 -63.972656 81.90625 -55.832031 81.90625 -45.25 L 58.328125 -45.25 C 58.328125 -49.71875 57.148438 -53.253906 54.796875 -55.859375 C 52.453125 -58.472656 49.125 -59.78125 44.8125 -59.78125 C 39.8125 -59.78125 36.140625 -58.210938 33.796875 -55.078125 C 31.453125 -51.953125 30.28125 -47.597656 30.28125 -42.015625 L 30.28125 -34.859375 C 30.28125 -29.347656 31.453125 -25.007812 33.796875 -21.84375 C 36.140625 -18.675781 39.734375 -17.09375 44.578125 -17.09375 C 49.347656 -17.09375 52.960938 -18.320312 55.421875 -20.78125 C 57.878906 -23.238281 59.109375 -26.703125 59.109375 -31.171875 L 81.90625 -31.171875 C 81.90625 -20.671875 78.679688 -12.625 72.234375 -7.03125 C 65.796875 -1.445312 56.691406 1.34375 44.921875 1.34375 C 31.804688 1.34375 21.878906 -2.003906 15.140625 -8.703125 C 8.398438 -15.410156 5.03125 -25.320312 5.03125 -38.4375 C 5.03125 -51.550781 8.398438 -61.457031 15.140625 -68.15625 C 21.878906 -74.863281 31.804688 -78.21875 44.921875 -78.21875 Z M 44.921875 -78.21875 "/></g></g></g><g fill="#737373" fill-opacity="1"><g transform="translate(625.22019, 237.033129)"><g><path d="M 60.34375 -76.875 L 90.953125 -76.875 L 63.359375 -45.25 L 91.515625 0 L 62.34375 0 L 46.375 -28.15625 L 32.96875 -17.203125 L 32.96875 0 L 8.265625 0 L 8.265625 -76.875 L 32.96875 -76.875 L 32.96875 -44.015625 Z M 60.34375 -76.875 "/></g></g></g></svg>