<svg xmlns="http://www.w3.org/2000/svg" xmlns:xlink="http://www.w3.org/1999/xlink" width="1261" zoomAndPan="magnify" viewBox="0 0 945.75 302.250004" height="403" preserveAspectRatio="xMidYMid meet" version="1.0"><defs><g/><clipPath id="75277ac8ff"><path d="M 7.910156 46.070312 L 249.546875 46.070312 L 249.546875 288.652344 L 7.910156 288.652344 Z M 7.910156 46.070312 " clip-rule="nonzero"/></clipPath><clipPath id="d593667348"><path d="M 27.363281 46.070312 L 230.09375 46.070312 C 240.835938 46.070312 249.546875 54.78125 249.546875 65.523438 L 249.546875 268.941406 C 249.546875 279.6875 240.835938 288.394531 230.09375 288.394531 L 27.363281 288.394531 C 16.621094 288.394531 7.910156 279.6875 7.910156 268.941406 L 7.910156 65.523438 C 7.910156 54.78125 16.621094 46.070312 27.363281 46.070312 Z M 27.363281 46.070312 " clip-rule="nonzero"/></clipPath></defs><g clip-path="url(#75277ac8ff)"><g clip-path="url(#d593667348)"><path fill="#08bc9e" d="M 7.910156 46.070312 L 249.546875 46.070312 L 249.546875 288.652344 L 7.910156 288.652344 Z M 7.910156 46.070312 " fill-opacity="1" fill-rule="nonzero"/></g></g><g fill="#ffffff" fill-opacity="1"><g transform="translate(30.817129, 203.562669)"><g><path d="M 35.625 0 L 7.484375 0 L 7.484375 -67.09375 L 84.578125 -67.09375 L 84.578125 -50.5 L 35.625 -50.5 L 35.625 -39.96875 L 77 -39.96875 L 77 -27.0625 L 35.625 -27.0625 Z M 35.625 0 "/></g></g></g><g fill="#ffffff" fill-opacity="1"><g transform="translate(119.120297, 203.562669)"><g><path d="M 55.59375 0 L 7.484375 0 L 7.484375 -67.046875 L 56.625 -67.046875 C 65.34375 -67.046875 72.523438 -66.644531 78.171875 -65.84375 C 83.816406 -65.050781 88.164062 -63.804688 91.21875 -62.109375 C 94.269531 -60.410156 96.335938 -58.25 97.421875 -55.625 C 98.515625 -53.007812 99.0625 -49.878906 99.0625 -46.234375 C 98.96875 -43.367188 98.179688 -40.992188 96.703125 -39.109375 C 95.222656 -37.222656 93.492188 -35.816406 91.515625 -34.890625 C 89.535156 -33.972656 87.800781 -33.515625 86.3125 -33.515625 C 87.769531 -33.515625 89.476562 -33.226562 91.4375 -32.65625 C 93.40625 -32.082031 95.316406 -31.25 97.171875 -30.15625 C 99.023438 -29.0625 100.566406 -27.734375 101.796875 -26.171875 C 103.035156 -24.617188 103.65625 -22.847656 103.65625 -20.859375 C 103.65625 -18.234375 103.347656 -15.828125 102.734375 -13.640625 C 102.128906 -11.460938 100.914062 -9.53125 99.09375 -7.84375 C 97.269531 -6.164062 94.582031 -4.742188 91.03125 -3.578125 C 87.476562 -2.410156 82.828125 -1.519531 77.078125 -0.90625 C 71.328125 -0.300781 64.164062 0 55.59375 0 Z M 54 -39.265625 C 58.113281 -39.265625 61.300781 -39.46875 63.5625 -39.875 C 65.820312 -40.28125 67.382812 -40.894531 68.25 -41.71875 C 69.125 -42.550781 69.5625 -43.609375 69.5625 -44.890625 C 69.5625 -46.191406 69.125 -47.253906 68.25 -48.078125 C 67.382812 -48.910156 65.820312 -49.519531 63.5625 -49.90625 C 61.300781 -50.300781 58.113281 -50.5 54 -50.5 L 35.625 -50.5 L 35.625 -39.265625 Z M 54 -16.546875 C 58.207031 -16.546875 61.617188 -16.65625 64.234375 -16.875 C 66.859375 -17.09375 68.773438 -17.59375 69.984375 -18.375 C 71.203125 -19.15625 71.8125 -20.414062 71.8125 -22.15625 C 71.8125 -23.90625 71.203125 -25.175781 69.984375 -25.96875 C 68.773438 -26.757812 66.859375 -27.253906 64.234375 -27.453125 C 61.617188 -27.660156 58.207031 -27.765625 54 -27.765625 L 35.625 -27.765625 L 35.625 -16.546875 Z M 54 -16.546875 "/></g></g></g><g fill="#ffffff" fill-opacity="1"><g transform="translate(284.378997, 138.495254)"><g><path d="M 9 -83.703125 L 76.640625 -83.703125 L 76.640625 -63.625 L 35.890625 -63.625 L 35.890625 -49.265625 L 70.921875 -49.265625 L 70.921875 -30.046875 L 35.890625 -30.046875 L 35.890625 0 L 9 0 Z M 9 -83.703125 "/></g></g></g><g fill="#ffffff" fill-opacity="1"><g transform="translate(365.522971, 138.495254)"><g><path d="M 50.609375 -85.15625 C 65.046875 -85.15625 76.195312 -81.460938 84.0625 -74.078125 C 91.925781 -66.703125 95.859375 -55.957031 95.859375 -41.84375 C 95.859375 -27.738281 91.925781 -16.992188 84.0625 -9.609375 C 76.195312 -2.234375 65.046875 1.453125 50.609375 1.453125 C 36.171875 1.453125 25.035156 -2.210938 17.203125 -9.546875 C 9.378906 -16.890625 5.46875 -27.65625 5.46875 -41.84375 C 5.46875 -56.039062 9.378906 -66.804688 17.203125 -74.140625 C 25.035156 -81.484375 36.171875 -85.15625 50.609375 -85.15625 Z M 50.609375 -65.09375 C 44.847656 -65.09375 40.46875 -63.347656 37.46875 -59.859375 C 34.46875 -56.367188 32.96875 -51.664062 32.96875 -45.75 L 32.96875 -37.953125 C 32.96875 -32.035156 34.46875 -27.332031 37.46875 -23.84375 C 40.46875 -20.351562 44.847656 -18.609375 50.609375 -18.609375 C 56.367188 -18.609375 60.769531 -20.351562 63.8125 -23.84375 C 66.851562 -27.332031 68.375 -32.035156 68.375 -37.953125 L 68.375 -45.75 C 68.375 -51.664062 66.851562 -56.367188 63.8125 -59.859375 C 60.769531 -63.347656 56.367188 -65.09375 50.609375 -65.09375 Z M 50.609375 -65.09375 "/></g></g></g><g fill="#ffffff" fill-opacity="1"><g transform="translate(466.861695, 138.495254)"><g><path d="M 88.4375 -58.03125 C 88.4375 -52.914062 87.054688 -48.289062 84.296875 -44.15625 C 81.546875 -40.019531 77.535156 -36.976562 72.265625 -35.03125 L 90.875 0 L 60.703125 0 L 45.859375 -30.53125 L 35.890625 -30.53125 L 35.890625 0 L 9 0 L 9 -83.703125 L 60.21875 -83.703125 C 66.21875 -83.703125 71.347656 -82.546875 75.609375 -80.234375 C 79.867188 -77.921875 83.070312 -74.796875 85.21875 -70.859375 C 87.363281 -66.929688 88.4375 -62.65625 88.4375 -58.03125 Z M 61.078125 -56.9375 C 61.078125 -59.125 60.34375 -60.945312 58.875 -62.40625 C 57.414062 -63.863281 55.632812 -64.59375 53.53125 -64.59375 L 35.890625 -64.59375 L 35.890625 -49.15625 L 53.53125 -49.15625 C 55.632812 -49.15625 57.414062 -49.90625 58.875 -51.40625 C 60.34375 -52.90625 61.078125 -54.75 61.078125 -56.9375 Z M 61.078125 -56.9375 "/></g></g></g><g fill="#ffffff" fill-opacity="1"><g transform="translate(561.509376, 138.495254)"><g><path d="M 51.09375 -85.15625 C 59.125 -85.15625 66.34375 -83.9375 72.75 -81.5 C 79.15625 -79.070312 84.242188 -75.484375 88.015625 -70.734375 C 91.785156 -65.992188 93.671875 -60.21875 93.671875 -53.40625 L 68 -53.40625 C 68 -56.894531 66.457031 -59.710938 63.375 -61.859375 C 60.300781 -64.015625 56.570312 -65.09375 52.1875 -65.09375 C 45.863281 -65.09375 41.078125 -63.40625 37.828125 -60.03125 C 34.585938 -56.664062 32.96875 -51.90625 32.96875 -45.75 L 32.96875 -37.953125 C 32.96875 -31.785156 34.585938 -27.019531 37.828125 -23.65625 C 41.078125 -20.289062 45.863281 -18.609375 52.1875 -18.609375 C 56.570312 -18.609375 60.300781 -19.640625 63.375 -21.703125 C 66.457031 -23.773438 68 -26.4375 68 -29.6875 L 49.03125 -29.6875 L 49.03125 -46.71875 L 93.671875 -46.71875 L 93.671875 0 L 79.8125 0 L 77.125 -8.265625 C 69.5 -1.785156 59.523438 1.453125 47.203125 1.453125 C 33.335938 1.453125 22.914062 -2.171875 15.9375 -9.421875 C 8.957031 -16.679688 5.46875 -27.488281 5.46875 -41.84375 C 5.46875 -56.039062 9.421875 -66.804688 17.328125 -74.140625 C 25.242188 -81.484375 36.5 -85.15625 51.09375 -85.15625 Z M 51.09375 -85.15625 "/></g></g></g><g fill="#ffffff" fill-opacity="1"><g transform="translate(662.8481, 138.495254)"><g><path d="M 10.21875 0 L 10.21875 -83.703125 L 37.109375 -83.703125 L 37.109375 0 Z M 10.21875 0 "/></g></g></g><g fill="#ffffff" fill-opacity="1"><g transform="translate(710.171946, 138.495254)"><g><path d="M 68.859375 0 L 33.703125 -40.640625 L 33.703125 0 L 9 0 L 9 -83.703125 L 32.484375 -83.703125 L 67.640625 -42.453125 L 67.640625 -83.703125 L 92.34375 -83.703125 L 92.34375 0 Z M 68.859375 0 "/></g></g></g><g fill="#ffffff" fill-opacity="1"><g transform="translate(811.510692, 138.495254)"><g><path d="M 51.09375 -85.15625 C 59.125 -85.15625 66.34375 -83.9375 72.75 -81.5 C 79.15625 -79.070312 84.242188 -75.484375 88.015625 -70.734375 C 91.785156 -65.992188 93.671875 -60.21875 93.671875 -53.40625 L 68 -53.40625 C 68 -56.894531 66.457031 -59.710938 63.375 -61.859375 C 60.300781 -64.015625 56.570312 -65.09375 52.1875 -65.09375 C 45.863281 -65.09375 41.078125 -63.40625 37.828125 -60.03125 C 34.585938 -56.664062 32.96875 -51.90625 32.96875 -45.75 L 32.96875 -37.953125 C 32.96875 -31.785156 34.585938 -27.019531 37.828125 -23.65625 C 41.078125 -20.289062 45.863281 -18.609375 52.1875 -18.609375 C 56.570312 -18.609375 60.300781 -19.640625 63.375 -21.703125 C 66.457031 -23.773438 68 -26.4375 68 -29.6875 L 49.03125 -29.6875 L 49.03125 -46.71875 L 93.671875 -46.71875 L 93.671875 0 L 79.8125 0 L 77.125 -8.265625 C 69.5 -1.785156 59.523438 1.453125 47.203125 1.453125 C 33.335938 1.453125 22.914062 -2.171875 15.9375 -9.421875 C 8.957031 -16.679688 5.46875 -27.488281 5.46875 -41.84375 C 5.46875 -56.039062 9.421875 -66.804688 17.328125 -74.140625 C 25.242188 -81.484375 36.5 -85.15625 51.09375 -85.15625 Z M 51.09375 -85.15625 "/></g></g></g><g fill="#ffffff" fill-opacity="1"><g transform="translate(912.854647, 138.495254)"><g/></g></g><g fill="#ffffff" fill-opacity="1"><g transform="translate(284.378997, 242.487206)"><g><path d="M 64.71875 -83.703125 C 68.9375 -83.703125 72.804688 -82.828125 76.328125 -81.078125 C 79.859375 -79.335938 82.65625 -76.882812 84.71875 -73.71875 C 86.789062 -70.5625 87.828125 -67.035156 87.828125 -63.140625 C 87.828125 -52.835938 83.164062 -46.347656 73.84375 -43.671875 L 73.84375 -43.1875 C 84.46875 -40.75 89.78125 -33.773438 89.78125 -22.265625 C 89.78125 -17.878906 88.703125 -14.003906 86.546875 -10.640625 C 84.398438 -7.273438 81.460938 -4.660156 77.734375 -2.796875 C 74.003906 -0.929688 69.910156 0 65.453125 0 L 9 0 L 9 -83.703125 Z M 35.890625 -51.09375 L 54.375 -51.09375 C 56.164062 -51.09375 57.644531 -51.71875 58.8125 -52.96875 C 59.988281 -54.226562 60.578125 -55.796875 60.578125 -57.671875 L 60.578125 -58.875 C 60.578125 -60.664062 59.96875 -62.1875 58.75 -63.4375 C 57.539062 -64.695312 56.082031 -65.328125 54.375 -65.328125 L 35.890625 -65.328125 Z M 35.890625 -19.46875 L 56.328125 -19.46875 C 58.109375 -19.46875 59.585938 -20.09375 60.765625 -21.34375 C 61.941406 -22.601562 62.53125 -24.164062 62.53125 -26.03125 L 62.53125 -27.25 C 62.53125 -29.113281 61.941406 -30.675781 60.765625 -31.9375 C 59.585938 -33.195312 58.109375 -33.828125 56.328125 -33.828125 L 35.890625 -33.828125 Z M 35.890625 -19.46875 "/></g></g></g><g fill="#ffffff" fill-opacity="1"><g transform="translate(379.02669, 242.487206)"><g><path d="M 9 -83.703125 L 35.890625 -83.703125 L 35.890625 -21.40625 L 78.828125 -21.40625 L 78.828125 0 L 9 0 Z M 9 -83.703125 "/></g></g></g><g fill="#ffffff" fill-opacity="1"><g transform="translate(460.170664, 242.487206)"><g><path d="M 50.609375 -85.15625 C 65.046875 -85.15625 76.195312 -81.460938 84.0625 -74.078125 C 91.925781 -66.703125 95.859375 -55.957031 95.859375 -41.84375 C 95.859375 -27.738281 91.925781 -16.992188 84.0625 -9.609375 C 76.195312 -2.234375 65.046875 1.453125 50.609375 1.453125 C 36.171875 1.453125 25.035156 -2.210938 17.203125 -9.546875 C 9.378906 -16.890625 5.46875 -27.65625 5.46875 -41.84375 C 5.46875 -56.039062 9.378906 -66.804688 17.203125 -74.140625 C 25.035156 -81.484375 36.171875 -85.15625 50.609375 -85.15625 Z M 50.609375 -65.09375 C 44.847656 -65.09375 40.46875 -63.347656 37.46875 -59.859375 C 34.46875 -56.367188 32.96875 -51.664062 32.96875 -45.75 L 32.96875 -37.953125 C 32.96875 -32.035156 34.46875 -27.332031 37.46875 -23.84375 C 40.46875 -20.351562 44.847656 -18.609375 50.609375 -18.609375 C 56.367188 -18.609375 60.769531 -20.351562 63.8125 -23.84375 C 66.851562 -27.332031 68.375 -32.035156 68.375 -37.953125 L 68.375 -45.75 C 68.375 -51.664062 66.851562 -56.367188 63.8125 -59.859375 C 60.769531 -63.347656 56.367188 -65.09375 50.609375 -65.09375 Z M 50.609375 -65.09375 "/></g></g></g><g fill="#ffffff" fill-opacity="1"><g transform="translate(561.509376, 242.487206)"><g><path d="M 48.90625 -85.15625 C 61.3125 -85.15625 71.125 -82.050781 78.34375 -75.84375 C 85.5625 -69.644531 89.171875 -60.785156 89.171875 -49.265625 L 63.5 -49.265625 C 63.5 -54.128906 62.222656 -57.984375 59.671875 -60.828125 C 57.117188 -63.671875 53.488281 -65.09375 48.78125 -65.09375 C 43.351562 -65.09375 39.359375 -63.382812 36.796875 -59.96875 C 34.242188 -56.5625 32.96875 -51.820312 32.96875 -45.75 L 32.96875 -37.953125 C 32.96875 -31.953125 34.242188 -27.226562 36.796875 -23.78125 C 39.359375 -20.332031 43.273438 -18.609375 48.546875 -18.609375 C 53.734375 -18.609375 57.664062 -19.945312 60.34375 -22.625 C 63.019531 -25.300781 64.359375 -29.070312 64.359375 -33.9375 L 89.171875 -33.9375 C 89.171875 -22.5 85.660156 -13.738281 78.640625 -7.65625 C 71.628906 -1.582031 61.71875 1.453125 48.90625 1.453125 C 34.632812 1.453125 23.828125 -2.191406 16.484375 -9.484375 C 9.140625 -16.785156 5.46875 -27.570312 5.46875 -41.84375 C 5.46875 -56.125 9.140625 -66.910156 16.484375 -74.203125 C 23.828125 -81.503906 34.632812 -85.15625 48.90625 -85.15625 Z M 48.90625 -85.15625 "/></g></g></g><g fill="#ffffff" fill-opacity="1"><g transform="translate(656.157069, 242.487206)"><g><path d="M 65.6875 -83.703125 L 99.03125 -83.703125 L 68.984375 -49.265625 L 99.640625 0 L 67.890625 0 L 50.484375 -30.65625 L 35.890625 -18.734375 L 35.890625 0 L 9 0 L 9 -83.703125 L 35.890625 -83.703125 L 35.890625 -47.9375 Z M 65.6875 -83.703125 "/></g></g></g><g fill="#08bc9e" fill-opacity="1"><g transform="translate(289.616002, 283.896228)"><g><path d="M 14.359375 0 L 12.34375 0 L 10.875 -4.375 L 4.078125 -4.375 L 2.59375 0 L 0.625 0 L 6.203125 -15.953125 L 8.796875 -15.953125 Z M 7.34375 -14.015625 L 4.609375 -5.953125 L 10.34375 -5.953125 L 7.609375 -14.015625 Z M 7.34375 -14.015625 "/></g></g></g><g fill="#08bc9e" fill-opacity="1"><g transform="translate(304.603269, 283.896228)"><g/></g></g><g fill="#08bc9e" fill-opacity="1"><g transform="translate(310.078966, 283.896228)"><g><path d="M 7.578125 -15.953125 C 9.191406 -15.953125 10.578125 -15.660156 11.734375 -15.078125 C 12.890625 -14.503906 13.78125 -13.625 14.40625 -12.4375 C 15.039062 -11.25 15.359375 -9.757812 15.359375 -7.96875 C 15.359375 -6.1875 15.039062 -4.703125 14.40625 -3.515625 C 13.78125 -2.328125 12.890625 -1.441406 11.734375 -0.859375 C 10.578125 -0.285156 9.191406 0 7.578125 0 L 2.40625 0 L 2.40625 -15.953125 Z M 7.390625 -1.59375 C 8.710938 -1.59375 9.8125 -1.800781 10.6875 -2.21875 C 11.5625 -2.632812 12.222656 -3.3125 12.671875 -4.25 C 13.128906 -5.1875 13.359375 -6.425781 13.359375 -7.96875 C 13.359375 -9.53125 13.128906 -10.773438 12.671875 -11.703125 C 12.222656 -12.640625 11.5625 -13.316406 10.6875 -13.734375 C 9.8125 -14.148438 8.710938 -14.359375 7.390625 -14.359375 L 4.28125 -14.359375 L 4.28125 -1.59375 Z M 7.390625 -1.59375 "/></g></g></g><g fill="#08bc9e" fill-opacity="1"><g transform="translate(327.029629, 283.896228)"><g><path d="M 11.46875 -5.609375 L 3.203125 -5.609375 C 3.242188 -4.148438 3.585938 -3.078125 4.234375 -2.390625 C 4.890625 -1.703125 5.785156 -1.359375 6.921875 -1.359375 C 7.785156 -1.359375 8.476562 -1.507812 9 -1.8125 C 9.519531 -2.125 9.929688 -2.609375 10.234375 -3.265625 L 10.46875 -3.265625 L 11.625 -2.578125 C 11.269531 -1.703125 10.707031 -1.015625 9.9375 -0.515625 C 9.175781 -0.015625 8.171875 0.234375 6.921875 0.234375 C 5.765625 0.234375 4.765625 0.00390625 3.921875 -0.453125 C 3.085938 -0.910156 2.441406 -1.601562 1.984375 -2.53125 C 1.535156 -3.46875 1.3125 -4.628906 1.3125 -6.015625 C 1.3125 -7.378906 1.550781 -8.53125 2.03125 -9.46875 C 2.507812 -10.40625 3.160156 -11.101562 3.984375 -11.5625 C 4.804688 -12.03125 5.75 -12.265625 6.8125 -12.265625 C 8.351562 -12.265625 9.554688 -11.828125 10.421875 -10.953125 C 11.296875 -10.085938 11.734375 -8.800781 11.734375 -7.09375 C 11.734375 -6.425781 11.722656 -5.972656 11.703125 -5.734375 Z M 9.984375 -7.09375 C 9.953125 -8.375 9.664062 -9.300781 9.125 -9.875 C 8.59375 -10.457031 7.820312 -10.75 6.8125 -10.75 C 5.757812 -10.75 4.929688 -10.457031 4.328125 -9.875 C 3.734375 -9.289062 3.367188 -8.363281 3.234375 -7.09375 Z M 9.984375 -7.09375 "/></g></g></g><g fill="#08bc9e" fill-opacity="1"><g transform="translate(339.857158, 283.896228)"><g><path d="M 6.90625 0.234375 C 5.84375 0.234375 4.890625 -0.00390625 4.046875 -0.484375 C 3.203125 -0.972656 2.535156 -1.6875 2.046875 -2.625 C 1.554688 -3.570312 1.3125 -4.703125 1.3125 -6.015625 C 1.3125 -7.328125 1.554688 -8.453125 2.046875 -9.390625 C 2.535156 -10.335938 3.203125 -11.050781 4.046875 -11.53125 C 4.890625 -12.019531 5.84375 -12.265625 6.90625 -12.265625 C 8.175781 -12.265625 9.1875 -12.023438 9.9375 -11.546875 C 10.695312 -11.066406 11.242188 -10.425781 11.578125 -9.625 L 10.359375 -8.75 L 10.140625 -8.75 C 9.816406 -9.414062 9.394531 -9.898438 8.875 -10.203125 C 8.363281 -10.515625 7.707031 -10.671875 6.90625 -10.671875 C 6.164062 -10.671875 5.515625 -10.492188 4.953125 -10.140625 C 4.390625 -9.796875 3.953125 -9.273438 3.640625 -8.578125 C 3.335938 -7.878906 3.1875 -7.023438 3.1875 -6.015625 C 3.1875 -5.003906 3.34375 -4.148438 3.65625 -3.453125 C 3.96875 -2.765625 4.398438 -2.242188 4.953125 -1.890625 C 5.515625 -1.535156 6.164062 -1.359375 6.90625 -1.359375 C 7.738281 -1.359375 8.429688 -1.546875 8.984375 -1.921875 C 9.535156 -2.304688 9.96875 -2.90625 10.28125 -3.71875 L 10.5 -3.71875 L 11.671875 -3.03125 C 11.359375 -2.019531 10.800781 -1.222656 10 -0.640625 C 9.195312 -0.0546875 8.164062 0.234375 6.90625 0.234375 Z M 6.90625 0.234375 "/></g></g></g><g fill="#08bc9e" fill-opacity="1"><g transform="translate(352.259291, 283.896228)"><g><path d="M 11.46875 -5.609375 L 3.203125 -5.609375 C 3.242188 -4.148438 3.585938 -3.078125 4.234375 -2.390625 C 4.890625 -1.703125 5.785156 -1.359375 6.921875 -1.359375 C 7.785156 -1.359375 8.476562 -1.507812 9 -1.8125 C 9.519531 -2.125 9.929688 -2.609375 10.234375 -3.265625 L 10.46875 -3.265625 L 11.625 -2.578125 C 11.269531 -1.703125 10.707031 -1.015625 9.9375 -0.515625 C 9.175781 -0.015625 8.171875 0.234375 6.921875 0.234375 C 5.765625 0.234375 4.765625 0.00390625 3.921875 -0.453125 C 3.085938 -0.910156 2.441406 -1.601562 1.984375 -2.53125 C 1.535156 -3.46875 1.3125 -4.628906 1.3125 -6.015625 C 1.3125 -7.378906 1.550781 -8.53125 2.03125 -9.46875 C 2.507812 -10.40625 3.160156 -11.101562 3.984375 -11.5625 C 4.804688 -12.03125 5.75 -12.265625 6.8125 -12.265625 C 8.351562 -12.265625 9.554688 -11.828125 10.421875 -10.953125 C 11.296875 -10.085938 11.734375 -8.800781 11.734375 -7.09375 C 11.734375 -6.425781 11.722656 -5.972656 11.703125 -5.734375 Z M 9.984375 -7.09375 C 9.953125 -8.375 9.664062 -9.300781 9.125 -9.875 C 8.59375 -10.457031 7.820312 -10.75 6.8125 -10.75 C 5.757812 -10.75 4.929688 -10.457031 4.328125 -9.875 C 3.734375 -9.289062 3.367188 -8.363281 3.234375 -7.09375 Z M 9.984375 -7.09375 "/></g></g></g><g fill="#08bc9e" fill-opacity="1"><g transform="translate(365.08682, 283.896228)"><g><path d="M 2.09375 0 L 2.09375 -12.03125 L 3.78125 -12.03125 L 3.78125 -10.140625 L 4.015625 -10.09375 C 4.410156 -10.800781 4.921875 -11.335938 5.546875 -11.703125 C 6.171875 -12.078125 6.929688 -12.265625 7.828125 -12.265625 C 9.273438 -12.265625 10.320312 -11.894531 10.96875 -11.15625 C 11.625 -10.414062 11.953125 -9.28125 11.953125 -7.75 L 11.953125 0 L 10.171875 0 L 10.171875 -7.703125 C 10.171875 -8.429688 10.078125 -9.015625 9.890625 -9.453125 C 9.703125 -9.890625 9.410156 -10.207031 9.015625 -10.40625 C 8.628906 -10.613281 8.125 -10.71875 7.5 -10.71875 C 6.414062 -10.71875 5.539062 -10.359375 4.875 -9.640625 C 4.207031 -8.921875 3.875 -7.765625 3.875 -6.171875 L 3.875 0 Z M 2.09375 0 "/></g></g></g><g fill="#08bc9e" fill-opacity="1"><g transform="translate(378.939679, 283.896228)"><g><path d="M 8.140625 -1.90625 L 8.703125 -0.625 C 8.421875 -0.34375 8.046875 -0.128906 7.578125 0.015625 C 7.117188 0.160156 6.625 0.234375 6.09375 0.234375 C 3.789062 0.234375 2.640625 -0.929688 2.640625 -3.265625 L 2.640625 -10.578125 L 0.546875 -10.578125 L 0.546875 -12.046875 L 2.640625 -12.046875 L 2.640625 -14.59375 L 4.421875 -14.875 L 4.421875 -12.046875 L 8.296875 -12.046875 L 8.296875 -10.578125 L 4.421875 -10.578125 L 4.421875 -3.4375 C 4.421875 -2.050781 5.019531 -1.359375 6.21875 -1.359375 C 6.875 -1.359375 7.4375 -1.539062 7.90625 -1.90625 Z M 8.140625 -1.90625 "/></g></g></g><g fill="#08bc9e" fill-opacity="1"><g transform="translate(388.1022, 283.896228)"><g><path d="M 2.09375 0 L 2.09375 -12.03125 L 3.78125 -12.03125 L 3.78125 -10.140625 L 4.015625 -10.09375 C 4.578125 -11.457031 5.628906 -12.140625 7.171875 -12.140625 C 7.992188 -12.140625 8.609375 -11.992188 9.015625 -11.703125 L 8.5625 -10.1875 L 8.34375 -10.140625 C 7.894531 -10.367188 7.398438 -10.484375 6.859375 -10.484375 C 5.898438 -10.484375 5.160156 -10.125 4.640625 -9.40625 C 4.128906 -8.6875 3.875 -7.519531 3.875 -5.90625 L 3.875 0 Z M 2.09375 0 "/></g></g></g><g fill="#08bc9e" fill-opacity="1"><g transform="translate(397.395614, 283.896228)"><g><path d="M 4.96875 0.234375 C 3.78125 0.234375 2.851562 -0.0703125 2.1875 -0.6875 C 1.519531 -1.3125 1.1875 -2.195312 1.1875 -3.34375 C 1.1875 -4.0625 1.332031 -4.664062 1.625 -5.15625 C 1.925781 -5.644531 2.382812 -6.039062 3 -6.34375 C 3.613281 -6.65625 4.421875 -6.894531 5.421875 -7.0625 C 6.296875 -7.207031 6.957031 -7.367188 7.40625 -7.546875 C 7.863281 -7.734375 8.171875 -7.941406 8.328125 -8.171875 C 8.484375 -8.398438 8.5625 -8.679688 8.5625 -9.015625 C 8.5625 -9.566406 8.375 -9.988281 8 -10.28125 C 7.625 -10.570312 7.023438 -10.71875 6.203125 -10.71875 C 5.421875 -10.71875 4.75 -10.566406 4.1875 -10.265625 C 3.632812 -9.960938 3.125 -9.507812 2.65625 -8.90625 L 2.4375 -8.90625 L 1.578125 -10.140625 C 2.078125 -10.796875 2.71875 -11.3125 3.5 -11.6875 C 4.289062 -12.070312 5.191406 -12.265625 6.203125 -12.265625 C 7.617188 -12.265625 8.660156 -11.953125 9.328125 -11.328125 C 10.003906 -10.703125 10.34375 -9.84375 10.34375 -8.75 L 10.34375 -2.375 C 10.34375 -1.695312 10.625 -1.359375 11.1875 -1.359375 C 11.382812 -1.359375 11.566406 -1.394531 11.734375 -1.46875 L 11.890625 -1.421875 L 12.09375 -0.1875 C 11.96875 -0.09375 11.796875 -0.0234375 11.578125 0.015625 C 11.367188 0.0664062 11.148438 0.09375 10.921875 0.09375 C 10.253906 0.09375 9.75 -0.0507812 9.40625 -0.34375 C 9.070312 -0.632812 8.859375 -1.066406 8.765625 -1.640625 L 8.546875 -1.65625 C 8.203125 -1.019531 7.738281 -0.546875 7.15625 -0.234375 C 6.570312 0.078125 5.84375 0.234375 4.96875 0.234375 Z M 5.359375 -1.1875 C 6.023438 -1.1875 6.601562 -1.335938 7.09375 -1.640625 C 7.582031 -1.953125 7.957031 -2.390625 8.21875 -2.953125 C 8.488281 -3.515625 8.625 -4.164062 8.625 -4.90625 L 8.625 -6.421875 L 8.40625 -6.46875 C 8.144531 -6.28125 7.816406 -6.117188 7.421875 -5.984375 C 7.035156 -5.859375 6.5 -5.75 5.8125 -5.65625 C 5.113281 -5.5625 4.554688 -5.414062 4.140625 -5.21875 C 3.734375 -5.019531 3.441406 -4.769531 3.265625 -4.46875 C 3.097656 -4.164062 3.015625 -3.789062 3.015625 -3.34375 C 3.015625 -2.644531 3.21875 -2.109375 3.625 -1.734375 C 4.039062 -1.367188 4.617188 -1.1875 5.359375 -1.1875 Z M 5.359375 -1.1875 "/></g></g></g><g fill="#08bc9e" fill-opacity="1"><g transform="translate(409.841378, 283.896228)"><g><path d="M 4.796875 0.234375 C 3.941406 0.234375 3.269531 -0.00390625 2.78125 -0.484375 C 2.289062 -0.972656 2.046875 -1.695312 2.046875 -2.65625 L 2.046875 -16.859375 L 3.828125 -16.859375 L 3.828125 -2.78125 C 3.828125 -2.28125 3.921875 -1.914062 4.109375 -1.6875 C 4.304688 -1.46875 4.609375 -1.359375 5.015625 -1.359375 C 5.265625 -1.359375 5.515625 -1.398438 5.765625 -1.484375 L 5.921875 -1.4375 L 6.125 -0.046875 C 6 0.046875 5.8125 0.113281 5.5625 0.15625 C 5.320312 0.207031 5.066406 0.234375 4.796875 0.234375 Z M 4.796875 0.234375 "/></g></g></g><g fill="#08bc9e" fill-opacity="1"><g transform="translate(416.386036, 283.896228)"><g><path d="M 2.984375 -14.359375 C 2.609375 -14.359375 2.300781 -14.472656 2.0625 -14.703125 C 1.832031 -14.941406 1.71875 -15.242188 1.71875 -15.609375 C 1.71875 -15.972656 1.832031 -16.269531 2.0625 -16.5 C 2.300781 -16.738281 2.609375 -16.859375 2.984375 -16.859375 C 3.367188 -16.859375 3.675781 -16.738281 3.90625 -16.5 C 4.144531 -16.269531 4.265625 -15.972656 4.265625 -15.609375 C 4.265625 -15.242188 4.144531 -14.941406 3.90625 -14.703125 C 3.675781 -14.472656 3.367188 -14.359375 2.984375 -14.359375 Z M 2.09375 0 L 2.09375 -12.03125 L 3.875 -12.03125 L 3.875 0 Z M 2.09375 0 "/></g></g></g><g fill="#08bc9e" fill-opacity="1"><g transform="translate(422.352588, 283.896228)"><g><path d="M 9.625 0 L 0.8125 0 L 0.8125 -1.546875 L 7.4375 -10.359375 L 7.359375 -10.578125 L 1.09375 -10.578125 L 1.09375 -12.046875 L 9.53125 -12.046875 L 9.53125 -10.5 L 2.90625 -1.6875 L 2.984375 -1.46875 L 9.625 -1.46875 Z M 9.625 0 "/></g></g></g><g fill="#08bc9e" fill-opacity="1"><g transform="translate(432.834954, 283.896228)"><g><path d="M 11.46875 -5.609375 L 3.203125 -5.609375 C 3.242188 -4.148438 3.585938 -3.078125 4.234375 -2.390625 C 4.890625 -1.703125 5.785156 -1.359375 6.921875 -1.359375 C 7.785156 -1.359375 8.476562 -1.507812 9 -1.8125 C 9.519531 -2.125 9.929688 -2.609375 10.234375 -3.265625 L 10.46875 -3.265625 L 11.625 -2.578125 C 11.269531 -1.703125 10.707031 -1.015625 9.9375 -0.515625 C 9.175781 -0.015625 8.171875 0.234375 6.921875 0.234375 C 5.765625 0.234375 4.765625 0.00390625 3.921875 -0.453125 C 3.085938 -0.910156 2.441406 -1.601562 1.984375 -2.53125 C 1.535156 -3.46875 1.3125 -4.628906 1.3125 -6.015625 C 1.3125 -7.378906 1.550781 -8.53125 2.03125 -9.46875 C 2.507812 -10.40625 3.160156 -11.101562 3.984375 -11.5625 C 4.804688 -12.03125 5.75 -12.265625 6.8125 -12.265625 C 8.351562 -12.265625 9.554688 -11.828125 10.421875 -10.953125 C 11.296875 -10.085938 11.734375 -8.800781 11.734375 -7.09375 C 11.734375 -6.425781 11.722656 -5.972656 11.703125 -5.734375 Z M 9.984375 -7.09375 C 9.953125 -8.375 9.664062 -9.300781 9.125 -9.875 C 8.59375 -10.457031 7.820312 -10.75 6.8125 -10.75 C 5.757812 -10.75 4.929688 -10.457031 4.328125 -9.875 C 3.734375 -9.289062 3.367188 -8.363281 3.234375 -7.09375 Z M 9.984375 -7.09375 "/></g></g></g><g fill="#08bc9e" fill-opacity="1"><g transform="translate(445.662483, 283.896228)"><g><path d="M 6.234375 0.234375 C 5.273438 0.234375 4.425781 0.00390625 3.6875 -0.453125 C 2.945312 -0.921875 2.363281 -1.617188 1.9375 -2.546875 C 1.519531 -3.484375 1.3125 -4.640625 1.3125 -6.015625 C 1.3125 -7.390625 1.53125 -8.539062 1.96875 -9.46875 C 2.40625 -10.40625 3.007812 -11.101562 3.78125 -11.5625 C 4.550781 -12.03125 5.441406 -12.265625 6.453125 -12.265625 C 7.242188 -12.265625 7.957031 -12.113281 8.59375 -11.8125 C 9.238281 -11.507812 9.789062 -11.015625 10.25 -10.328125 L 10.484375 -10.359375 L 10.484375 -16.859375 L 12.265625 -16.859375 L 12.265625 0 L 10.484375 0 L 10.484375 -1.75 L 10.25 -1.796875 C 9.863281 -1.203125 9.332031 -0.710938 8.65625 -0.328125 C 7.976562 0.046875 7.171875 0.234375 6.234375 0.234375 Z M 6.796875 -1.359375 C 7.921875 -1.359375 8.816406 -1.742188 9.484375 -2.515625 C 10.148438 -3.285156 10.484375 -4.453125 10.484375 -6.015625 C 10.484375 -7.585938 10.148438 -8.753906 9.484375 -9.515625 C 8.816406 -10.285156 7.921875 -10.671875 6.796875 -10.671875 C 5.640625 -10.671875 4.75 -10.296875 4.125 -9.546875 C 3.5 -8.796875 3.1875 -7.617188 3.1875 -6.015625 C 3.1875 -2.910156 4.390625 -1.359375 6.796875 -1.359375 Z M 6.796875 -1.359375 "/></g></g></g><g fill="#08bc9e" fill-opacity="1"><g transform="translate(460.028013, 283.896228)"><g/></g></g><g fill="#08bc9e" fill-opacity="1"><g transform="translate(465.50371, 283.896228)"><g><path d="M 8.8125 0.234375 C 7.414062 0.234375 6.171875 -0.0820312 5.078125 -0.71875 C 3.992188 -1.363281 3.140625 -2.300781 2.515625 -3.53125 C 1.898438 -4.769531 1.59375 -6.25 1.59375 -7.96875 C 1.59375 -9.695312 1.898438 -11.175781 2.515625 -12.40625 C 3.140625 -13.644531 3.992188 -14.582031 5.078125 -15.21875 C 6.171875 -15.851562 7.414062 -16.171875 8.8125 -16.171875 C 10.300781 -16.171875 11.539062 -15.890625 12.53125 -15.328125 C 13.519531 -14.765625 14.234375 -13.914062 14.671875 -12.78125 L 13.46875 -11.984375 L 13.203125 -11.984375 C 12.765625 -12.898438 12.195312 -13.546875 11.5 -13.921875 C 10.800781 -14.304688 9.90625 -14.5 8.8125 -14.5 C 7.8125 -14.5 6.921875 -14.273438 6.140625 -13.828125 C 5.359375 -13.378906 4.738281 -12.671875 4.28125 -11.703125 C 3.820312 -10.734375 3.59375 -9.488281 3.59375 -7.96875 C 3.59375 -6.457031 3.820312 -5.21875 4.28125 -4.25 C 4.738281 -3.28125 5.359375 -2.570312 6.140625 -2.125 C 6.921875 -1.6875 7.8125 -1.46875 8.8125 -1.46875 C 9.96875 -1.46875 10.910156 -1.722656 11.640625 -2.234375 C 12.378906 -2.753906 12.925781 -3.597656 13.28125 -4.765625 L 13.5625 -4.765625 L 14.8125 -4.140625 C 14.4375 -2.734375 13.738281 -1.648438 12.71875 -0.890625 C 11.695312 -0.140625 10.394531 0.234375 8.8125 0.234375 Z M 8.8125 0.234375 "/></g></g></g><g fill="#08bc9e" fill-opacity="1"><g transform="translate(481.145454, 283.896228)"><g><path d="M 2.09375 0 L 2.09375 -12.03125 L 3.78125 -12.03125 L 3.78125 -10.140625 L 4.015625 -10.09375 C 4.578125 -11.457031 5.628906 -12.140625 7.171875 -12.140625 C 7.992188 -12.140625 8.609375 -11.992188 9.015625 -11.703125 L 8.5625 -10.1875 L 8.34375 -10.140625 C 7.894531 -10.367188 7.398438 -10.484375 6.859375 -10.484375 C 5.898438 -10.484375 5.160156 -10.125 4.640625 -9.40625 C 4.128906 -8.6875 3.875 -7.519531 3.875 -5.90625 L 3.875 0 Z M 2.09375 0 "/></g></g></g><g fill="#08bc9e" fill-opacity="1"><g transform="translate(490.438868, 283.896228)"><g><path d="M 2.40625 5.109375 C 2 5.109375 1.617188 5.070312 1.265625 5 C 0.910156 4.9375 0.609375 4.84375 0.359375 4.71875 L 0.6875 3.3125 L 0.890625 3.234375 C 1.054688 3.328125 1.269531 3.40625 1.53125 3.46875 C 1.800781 3.53125 2.070312 3.5625 2.34375 3.5625 C 2.832031 3.5625 3.234375 3.492188 3.546875 3.359375 C 3.867188 3.222656 4.144531 3.003906 4.375 2.703125 C 4.601562 2.410156 4.816406 2 5.015625 1.46875 L 5.4375 0.28125 L 0.609375 -12.03125 L 2.53125 -12.03125 L 6.3125 -2.21875 L 6.53125 -2.21875 L 10.1875 -12.03125 L 12.015625 -12.03125 L 6.640625 1.890625 C 6.328125 2.660156 5.984375 3.28125 5.609375 3.75 C 5.234375 4.21875 4.785156 4.5625 4.265625 4.78125 C 3.742188 5 3.125 5.109375 2.40625 5.109375 Z M 2.40625 5.109375 "/></g></g></g><g fill="#08bc9e" fill-opacity="1"><g transform="translate(503.12459, 283.896228)"><g><path d="M 2.09375 4.875 L 2.09375 -12.03125 L 3.875 -12.03125 L 3.875 -10.234375 L 4.109375 -10.1875 C 4.992188 -11.570312 6.304688 -12.265625 8.046875 -12.265625 C 9.046875 -12.265625 9.921875 -12.035156 10.671875 -11.578125 C 11.421875 -11.117188 12 -10.421875 12.40625 -9.484375 C 12.820312 -8.546875 13.03125 -7.390625 13.03125 -6.015625 C 13.03125 -4.640625 12.8125 -3.484375 12.375 -2.546875 C 11.945312 -1.617188 11.347656 -0.921875 10.578125 -0.453125 C 9.804688 0.00390625 8.914062 0.234375 7.90625 0.234375 C 7.09375 0.234375 6.367188 0.09375 5.734375 -0.1875 C 5.109375 -0.476562 4.566406 -0.945312 4.109375 -1.59375 L 3.875 -1.546875 L 3.875 4.875 Z M 7.515625 -1.359375 C 9.953125 -1.359375 11.171875 -2.910156 11.171875 -6.015625 C 11.171875 -9.117188 9.953125 -10.671875 7.515625 -10.671875 C 6.804688 -10.671875 6.175781 -10.503906 5.625 -10.171875 C 5.082031 -9.847656 4.65625 -9.335938 4.34375 -8.640625 C 4.03125 -7.953125 3.875 -7.078125 3.875 -6.015625 C 3.875 -4.953125 4.03125 -4.070312 4.34375 -3.375 C 4.65625 -2.6875 5.082031 -2.175781 5.625 -1.84375 C 6.175781 -1.519531 6.804688 -1.359375 7.515625 -1.359375 Z M 7.515625 -1.359375 "/></g></g></g><g fill="#08bc9e" fill-opacity="1"><g transform="translate(517.479206, 283.896228)"><g><path d="M 8.140625 -1.90625 L 8.703125 -0.625 C 8.421875 -0.34375 8.046875 -0.128906 7.578125 0.015625 C 7.117188 0.160156 6.625 0.234375 6.09375 0.234375 C 3.789062 0.234375 2.640625 -0.929688 2.640625 -3.265625 L 2.640625 -10.578125 L 0.546875 -10.578125 L 0.546875 -12.046875 L 2.640625 -12.046875 L 2.640625 -14.59375 L 4.421875 -14.875 L 4.421875 -12.046875 L 8.296875 -12.046875 L 8.296875 -10.578125 L 4.421875 -10.578125 L 4.421875 -3.4375 C 4.421875 -2.050781 5.019531 -1.359375 6.21875 -1.359375 C 6.875 -1.359375 7.4375 -1.539062 7.90625 -1.90625 Z M 8.140625 -1.90625 "/></g></g></g><g fill="#08bc9e" fill-opacity="1"><g transform="translate(526.641727, 283.896228)"><g><path d="M 6.90625 0.234375 C 5.769531 0.234375 4.78125 -0.00390625 3.9375 -0.484375 C 3.101562 -0.972656 2.457031 -1.679688 2 -2.609375 C 1.539062 -3.546875 1.3125 -4.679688 1.3125 -6.015625 C 1.3125 -7.347656 1.539062 -8.484375 2 -9.421875 C 2.457031 -10.359375 3.101562 -11.066406 3.9375 -11.546875 C 4.78125 -12.023438 5.769531 -12.265625 6.90625 -12.265625 C 8.039062 -12.265625 9.023438 -12.023438 9.859375 -11.546875 C 10.703125 -11.066406 11.347656 -10.359375 11.796875 -9.421875 C 12.253906 -8.484375 12.484375 -7.347656 12.484375 -6.015625 C 12.484375 -4.679688 12.253906 -3.546875 11.796875 -2.609375 C 11.347656 -1.679688 10.703125 -0.972656 9.859375 -0.484375 C 9.023438 -0.00390625 8.039062 0.234375 6.90625 0.234375 Z M 6.90625 -1.359375 C 8.101562 -1.359375 9.019531 -1.738281 9.65625 -2.5 C 10.289062 -3.257812 10.609375 -4.429688 10.609375 -6.015625 C 10.609375 -7.609375 10.289062 -8.78125 9.65625 -9.53125 C 9.019531 -10.289062 8.101562 -10.671875 6.90625 -10.671875 C 5.707031 -10.671875 4.785156 -10.289062 4.140625 -9.53125 C 3.503906 -8.769531 3.1875 -7.597656 3.1875 -6.015625 C 3.1875 -4.429688 3.503906 -3.257812 4.140625 -2.5 C 4.785156 -1.738281 5.707031 -1.359375 6.90625 -1.359375 Z M 6.90625 -1.359375 "/></g></g></g><g fill="#08bc9e" fill-opacity="1"><g transform="translate(540.450943, 283.896228)"><g/></g></g><g fill="#08bc9e" fill-opacity="1"><g transform="translate(545.926629, 283.896228)"><g><path d="M 4.96875 0.234375 C 3.78125 0.234375 2.851562 -0.0703125 2.1875 -0.6875 C 1.519531 -1.3125 1.1875 -2.195312 1.1875 -3.34375 C 1.1875 -4.0625 1.332031 -4.664062 1.625 -5.15625 C 1.925781 -5.644531 2.382812 -6.039062 3 -6.34375 C 3.613281 -6.65625 4.421875 -6.894531 5.421875 -7.0625 C 6.296875 -7.207031 6.957031 -7.367188 7.40625 -7.546875 C 7.863281 -7.734375 8.171875 -7.941406 8.328125 -8.171875 C 8.484375 -8.398438 8.5625 -8.679688 8.5625 -9.015625 C 8.5625 -9.566406 8.375 -9.988281 8 -10.28125 C 7.625 -10.570312 7.023438 -10.71875 6.203125 -10.71875 C 5.421875 -10.71875 4.75 -10.566406 4.1875 -10.265625 C 3.632812 -9.960938 3.125 -9.507812 2.65625 -8.90625 L 2.4375 -8.90625 L 1.578125 -10.140625 C 2.078125 -10.796875 2.71875 -11.3125 3.5 -11.6875 C 4.289062 -12.070312 5.191406 -12.265625 6.203125 -12.265625 C 7.617188 -12.265625 8.660156 -11.953125 9.328125 -11.328125 C 10.003906 -10.703125 10.34375 -9.84375 10.34375 -8.75 L 10.34375 -2.375 C 10.34375 -1.695312 10.625 -1.359375 11.1875 -1.359375 C 11.382812 -1.359375 11.566406 -1.394531 11.734375 -1.46875 L 11.890625 -1.421875 L 12.09375 -0.1875 C 11.96875 -0.09375 11.796875 -0.0234375 11.578125 0.015625 C 11.367188 0.0664062 11.148438 0.09375 10.921875 0.09375 C 10.253906 0.09375 9.75 -0.0507812 9.40625 -0.34375 C 9.070312 -0.632812 8.859375 -1.066406 8.765625 -1.640625 L 8.546875 -1.65625 C 8.203125 -1.019531 7.738281 -0.546875 7.15625 -0.234375 C 6.570312 0.078125 5.84375 0.234375 4.96875 0.234375 Z M 5.359375 -1.1875 C 6.023438 -1.1875 6.601562 -1.335938 7.09375 -1.640625 C 7.582031 -1.953125 7.957031 -2.390625 8.21875 -2.953125 C 8.488281 -3.515625 8.625 -4.164062 8.625 -4.90625 L 8.625 -6.421875 L 8.40625 -6.46875 C 8.144531 -6.28125 7.816406 -6.117188 7.421875 -5.984375 C 7.035156 -5.859375 6.5 -5.75 5.8125 -5.65625 C 5.113281 -5.5625 4.554688 -5.414062 4.140625 -5.21875 C 3.734375 -5.019531 3.441406 -4.769531 3.265625 -4.46875 C 3.097656 -4.164062 3.015625 -3.789062 3.015625 -3.34375 C 3.015625 -2.644531 3.21875 -2.109375 3.625 -1.734375 C 4.039062 -1.367188 4.617188 -1.1875 5.359375 -1.1875 Z M 5.359375 -1.1875 "/></g></g></g><g fill="#08bc9e" fill-opacity="1"><g transform="translate(558.372392, 283.896228)"><g><path d="M 2.09375 0 L 2.09375 -12.03125 L 3.78125 -12.03125 L 3.78125 -10.140625 L 4.015625 -10.09375 C 4.410156 -10.800781 4.921875 -11.335938 5.546875 -11.703125 C 6.171875 -12.078125 6.929688 -12.265625 7.828125 -12.265625 C 9.273438 -12.265625 10.320312 -11.894531 10.96875 -11.15625 C 11.625 -10.414062 11.953125 -9.28125 11.953125 -7.75 L 11.953125 0 L 10.171875 0 L 10.171875 -7.703125 C 10.171875 -8.429688 10.078125 -9.015625 9.890625 -9.453125 C 9.703125 -9.890625 9.410156 -10.207031 9.015625 -10.40625 C 8.628906 -10.613281 8.125 -10.71875 7.5 -10.71875 C 6.414062 -10.71875 5.539062 -10.359375 4.875 -9.640625 C 4.207031 -8.921875 3.875 -7.765625 3.875 -6.171875 L 3.875 0 Z M 2.09375 0 "/></g></g></g><g fill="#08bc9e" fill-opacity="1"><g transform="translate(572.225263, 283.896228)"><g><path d="M 6.234375 0.234375 C 5.273438 0.234375 4.425781 0.00390625 3.6875 -0.453125 C 2.945312 -0.921875 2.363281 -1.617188 1.9375 -2.546875 C 1.519531 -3.484375 1.3125 -4.640625 1.3125 -6.015625 C 1.3125 -7.390625 1.53125 -8.539062 1.96875 -9.46875 C 2.40625 -10.40625 3.007812 -11.101562 3.78125 -11.5625 C 4.550781 -12.03125 5.441406 -12.265625 6.453125 -12.265625 C 7.242188 -12.265625 7.957031 -12.113281 8.59375 -11.8125 C 9.238281 -11.507812 9.789062 -11.015625 10.25 -10.328125 L 10.484375 -10.359375 L 10.484375 -16.859375 L 12.265625 -16.859375 L 12.265625 0 L 10.484375 0 L 10.484375 -1.75 L 10.25 -1.796875 C 9.863281 -1.203125 9.332031 -0.710938 8.65625 -0.328125 C 7.976562 0.046875 7.171875 0.234375 6.234375 0.234375 Z M 6.796875 -1.359375 C 7.921875 -1.359375 8.816406 -1.742188 9.484375 -2.515625 C 10.148438 -3.285156 10.484375 -4.453125 10.484375 -6.015625 C 10.484375 -7.585938 10.148438 -8.753906 9.484375 -9.515625 C 8.816406 -10.285156 7.921875 -10.671875 6.796875 -10.671875 C 5.640625 -10.671875 4.75 -10.296875 4.125 -9.546875 C 3.5 -8.796875 3.1875 -7.617188 3.1875 -6.015625 C 3.1875 -2.910156 4.390625 -1.359375 6.796875 -1.359375 Z M 6.796875 -1.359375 "/></g></g></g><g fill="#08bc9e" fill-opacity="1"><g transform="translate(586.590793, 283.896228)"><g/></g></g><g fill="#08bc9e" fill-opacity="1"><g transform="translate(592.066501, 283.896228)"><g><path d="M 2.40625 0 L 2.40625 -15.953125 L 8.453125 -15.953125 C 9.429688 -15.953125 10.265625 -15.796875 10.953125 -15.484375 C 11.640625 -15.171875 12.15625 -14.722656 12.5 -14.140625 C 12.84375 -13.566406 13.015625 -12.878906 13.015625 -12.078125 C 13.015625 -11.390625 12.828125 -10.765625 12.453125 -10.203125 C 12.078125 -9.640625 11.539062 -9.203125 10.84375 -8.890625 L 10.84375 -8.65625 C 11.90625 -8.394531 12.707031 -7.921875 13.25 -7.234375 C 13.800781 -6.546875 14.078125 -5.675781 14.078125 -4.625 C 14.078125 -3.144531 13.644531 -2.003906 12.78125 -1.203125 C 11.914062 -0.398438 10.625 0 8.90625 0 Z M 8.375 -9.25 C 9.25 -9.25 9.929688 -9.476562 10.421875 -9.9375 C 10.910156 -10.40625 11.15625 -11.039062 11.15625 -11.84375 C 11.15625 -12.695312 10.921875 -13.335938 10.453125 -13.765625 C 9.984375 -14.191406 9.289062 -14.40625 8.375 -14.40625 L 4.28125 -14.40625 L 4.28125 -9.25 Z M 8.765625 -1.546875 C 11.035156 -1.546875 12.171875 -2.570312 12.171875 -4.625 C 12.171875 -6.675781 11.035156 -7.703125 8.765625 -7.703125 L 4.28125 -7.703125 L 4.28125 -1.546875 Z M 8.765625 -1.546875 "/></g></g></g><g fill="#08bc9e" fill-opacity="1"><g transform="translate(607.413718, 283.896228)"><g><path d="M 4.796875 0.234375 C 3.941406 0.234375 3.269531 -0.00390625 2.78125 -0.484375 C 2.289062 -0.972656 2.046875 -1.695312 2.046875 -2.65625 L 2.046875 -16.859375 L 3.828125 -16.859375 L 3.828125 -2.78125 C 3.828125 -2.28125 3.921875 -1.914062 4.109375 -1.6875 C 4.304688 -1.46875 4.609375 -1.359375 5.015625 -1.359375 C 5.265625 -1.359375 5.515625 -1.398438 5.765625 -1.484375 L 5.921875 -1.4375 L 6.125 -0.046875 C 6 0.046875 5.8125 0.113281 5.5625 0.15625 C 5.320312 0.207031 5.066406 0.234375 4.796875 0.234375 Z M 4.796875 0.234375 "/></g></g></g><g fill="#08bc9e" fill-opacity="1"><g transform="translate(613.958376, 283.896228)"><g><path d="M 6.90625 0.234375 C 5.769531 0.234375 4.78125 -0.00390625 3.9375 -0.484375 C 3.101562 -0.972656 2.457031 -1.679688 2 -2.609375 C 1.539062 -3.546875 1.3125 -4.679688 1.3125 -6.015625 C 1.3125 -7.347656 1.539062 -8.484375 2 -9.421875 C 2.457031 -10.359375 3.101562 -11.066406 3.9375 -11.546875 C 4.78125 -12.023438 5.769531 -12.265625 6.90625 -12.265625 C 8.039062 -12.265625 9.023438 -12.023438 9.859375 -11.546875 C 10.703125 -11.066406 11.347656 -10.359375 11.796875 -9.421875 C 12.253906 -8.484375 12.484375 -7.347656 12.484375 -6.015625 C 12.484375 -4.679688 12.253906 -3.546875 11.796875 -2.609375 C 11.347656 -1.679688 10.703125 -0.972656 9.859375 -0.484375 C 9.023438 -0.00390625 8.039062 0.234375 6.90625 0.234375 Z M 6.90625 -1.359375 C 8.101562 -1.359375 9.019531 -1.738281 9.65625 -2.5 C 10.289062 -3.257812 10.609375 -4.429688 10.609375 -6.015625 C 10.609375 -7.609375 10.289062 -8.78125 9.65625 -9.53125 C 9.019531 -10.289062 8.101562 -10.671875 6.90625 -10.671875 C 5.707031 -10.671875 4.785156 -10.289062 4.140625 -9.53125 C 3.503906 -8.769531 3.1875 -7.597656 3.1875 -6.015625 C 3.1875 -4.429688 3.503906 -3.257812 4.140625 -2.5 C 4.785156 -1.738281 5.707031 -1.359375 6.90625 -1.359375 Z M 6.90625 -1.359375 "/></g></g></g><g fill="#08bc9e" fill-opacity="1"><g transform="translate(627.767615, 283.896228)"><g><path d="M 6.90625 0.234375 C 5.84375 0.234375 4.890625 -0.00390625 4.046875 -0.484375 C 3.203125 -0.972656 2.535156 -1.6875 2.046875 -2.625 C 1.554688 -3.570312 1.3125 -4.703125 1.3125 -6.015625 C 1.3125 -7.328125 1.554688 -8.453125 2.046875 -9.390625 C 2.535156 -10.335938 3.203125 -11.050781 4.046875 -11.53125 C 4.890625 -12.019531 5.84375 -12.265625 6.90625 -12.265625 C 8.175781 -12.265625 9.1875 -12.023438 9.9375 -11.546875 C 10.695312 -11.066406 11.242188 -10.425781 11.578125 -9.625 L 10.359375 -8.75 L 10.140625 -8.75 C 9.816406 -9.414062 9.394531 -9.898438 8.875 -10.203125 C 8.363281 -10.515625 7.707031 -10.671875 6.90625 -10.671875 C 6.164062 -10.671875 5.515625 -10.492188 4.953125 -10.140625 C 4.390625 -9.796875 3.953125 -9.273438 3.640625 -8.578125 C 3.335938 -7.878906 3.1875 -7.023438 3.1875 -6.015625 C 3.1875 -5.003906 3.34375 -4.148438 3.65625 -3.453125 C 3.96875 -2.765625 4.398438 -2.242188 4.953125 -1.890625 C 5.515625 -1.535156 6.164062 -1.359375 6.90625 -1.359375 C 7.738281 -1.359375 8.429688 -1.546875 8.984375 -1.921875 C 9.535156 -2.304688 9.96875 -2.90625 10.28125 -3.71875 L 10.5 -3.71875 L 11.671875 -3.03125 C 11.359375 -2.019531 10.800781 -1.222656 10 -0.640625 C 9.195312 -0.0546875 8.164062 0.234375 6.90625 0.234375 Z M 6.90625 0.234375 "/></g></g></g><g fill="#08bc9e" fill-opacity="1"><g transform="translate(640.169748, 283.896228)"><g><path d="M 2.09375 0 L 2.09375 -16.859375 L 3.875 -16.859375 L 3.875 -7.015625 L 4.171875 -7.015625 L 8.640625 -12.03125 L 10.5 -12.03125 L 10.5 -11.78125 L 5.734375 -6.375 L 10.96875 -0.265625 L 10.96875 0 L 8.984375 0 L 4.171875 -5.5625 L 3.875 -5.5625 L 3.875 0 Z M 2.09375 0 "/></g></g></g><g fill="#08bc9e" fill-opacity="1"><g transform="translate(651.361124, 283.896228)"><g><path d="M 6.90625 0.234375 C 5.84375 0.234375 4.890625 -0.00390625 4.046875 -0.484375 C 3.203125 -0.972656 2.535156 -1.6875 2.046875 -2.625 C 1.554688 -3.570312 1.3125 -4.703125 1.3125 -6.015625 C 1.3125 -7.328125 1.554688 -8.453125 2.046875 -9.390625 C 2.535156 -10.335938 3.203125 -11.050781 4.046875 -11.53125 C 4.890625 -12.019531 5.84375 -12.265625 6.90625 -12.265625 C 8.175781 -12.265625 9.1875 -12.023438 9.9375 -11.546875 C 10.695312 -11.066406 11.242188 -10.425781 11.578125 -9.625 L 10.359375 -8.75 L 10.140625 -8.75 C 9.816406 -9.414062 9.394531 -9.898438 8.875 -10.203125 C 8.363281 -10.515625 7.707031 -10.671875 6.90625 -10.671875 C 6.164062 -10.671875 5.515625 -10.492188 4.953125 -10.140625 C 4.390625 -9.796875 3.953125 -9.273438 3.640625 -8.578125 C 3.335938 -7.878906 3.1875 -7.023438 3.1875 -6.015625 C 3.1875 -5.003906 3.34375 -4.148438 3.65625 -3.453125 C 3.96875 -2.765625 4.398438 -2.242188 4.953125 -1.890625 C 5.515625 -1.535156 6.164062 -1.359375 6.90625 -1.359375 C 7.738281 -1.359375 8.429688 -1.546875 8.984375 -1.921875 C 9.535156 -2.304688 9.96875 -2.90625 10.28125 -3.71875 L 10.5 -3.71875 L 11.671875 -3.03125 C 11.359375 -2.019531 10.800781 -1.222656 10 -0.640625 C 9.195312 -0.0546875 8.164062 0.234375 6.90625 0.234375 Z M 6.90625 0.234375 "/></g></g></g><g fill="#08bc9e" fill-opacity="1"><g transform="translate(663.763256, 283.896228)"><g><path d="M 2.09375 0 L 2.09375 -16.859375 L 3.875 -16.859375 L 3.875 -10.328125 L 4.109375 -10.28125 C 4.960938 -11.601562 6.203125 -12.265625 7.828125 -12.265625 C 9.273438 -12.265625 10.320312 -11.894531 10.96875 -11.15625 C 11.625 -10.414062 11.953125 -9.28125 11.953125 -7.75 L 11.953125 0 L 10.171875 0 L 10.171875 -7.703125 C 10.171875 -8.429688 10.078125 -9.015625 9.890625 -9.453125 C 9.703125 -9.890625 9.410156 -10.207031 9.015625 -10.40625 C 8.628906 -10.613281 8.125 -10.71875 7.5 -10.71875 C 6.40625 -10.71875 5.523438 -10.363281 4.859375 -9.65625 C 4.203125 -8.945312 3.875 -7.785156 3.875 -6.171875 L 3.875 0 Z M 2.09375 0 "/></g></g></g><g fill="#08bc9e" fill-opacity="1"><g transform="translate(677.616104, 283.896228)"><g><path d="M 4.96875 0.234375 C 3.78125 0.234375 2.851562 -0.0703125 2.1875 -0.6875 C 1.519531 -1.3125 1.1875 -2.195312 1.1875 -3.34375 C 1.1875 -4.0625 1.332031 -4.664062 1.625 -5.15625 C 1.925781 -5.644531 2.382812 -6.039062 3 -6.34375 C 3.613281 -6.65625 4.421875 -6.894531 5.421875 -7.0625 C 6.296875 -7.207031 6.957031 -7.367188 7.40625 -7.546875 C 7.863281 -7.734375 8.171875 -7.941406 8.328125 -8.171875 C 8.484375 -8.398438 8.5625 -8.679688 8.5625 -9.015625 C 8.5625 -9.566406 8.375 -9.988281 8 -10.28125 C 7.625 -10.570312 7.023438 -10.71875 6.203125 -10.71875 C 5.421875 -10.71875 4.75 -10.566406 4.1875 -10.265625 C 3.632812 -9.960938 3.125 -9.507812 2.65625 -8.90625 L 2.4375 -8.90625 L 1.578125 -10.140625 C 2.078125 -10.796875 2.71875 -11.3125 3.5 -11.6875 C 4.289062 -12.070312 5.191406 -12.265625 6.203125 -12.265625 C 7.617188 -12.265625 8.660156 -11.953125 9.328125 -11.328125 C 10.003906 -10.703125 10.34375 -9.84375 10.34375 -8.75 L 10.34375 -2.375 C 10.34375 -1.695312 10.625 -1.359375 11.1875 -1.359375 C 11.382812 -1.359375 11.566406 -1.394531 11.734375 -1.46875 L 11.890625 -1.421875 L 12.09375 -0.1875 C 11.96875 -0.09375 11.796875 -0.0234375 11.578125 0.015625 C 11.367188 0.0664062 11.148438 0.09375 10.921875 0.09375 C 10.253906 0.09375 9.75 -0.0507812 9.40625 -0.34375 C 9.070312 -0.632812 8.859375 -1.066406 8.765625 -1.640625 L 8.546875 -1.65625 C 8.203125 -1.019531 7.738281 -0.546875 7.15625 -0.234375 C 6.570312 0.078125 5.84375 0.234375 4.96875 0.234375 Z M 5.359375 -1.1875 C 6.023438 -1.1875 6.601562 -1.335938 7.09375 -1.640625 C 7.582031 -1.953125 7.957031 -2.390625 8.21875 -2.953125 C 8.488281 -3.515625 8.625 -4.164062 8.625 -4.90625 L 8.625 -6.421875 L 8.40625 -6.46875 C 8.144531 -6.28125 7.816406 -6.117188 7.421875 -5.984375 C 7.035156 -5.859375 6.5 -5.75 5.8125 -5.65625 C 5.113281 -5.5625 4.554688 -5.414062 4.140625 -5.21875 C 3.734375 -5.019531 3.441406 -4.769531 3.265625 -4.46875 C 3.097656 -4.164062 3.015625 -3.789062 3.015625 -3.34375 C 3.015625 -2.644531 3.21875 -2.109375 3.625 -1.734375 C 4.039062 -1.367188 4.617188 -1.1875 5.359375 -1.1875 Z M 5.359375 -1.1875 "/></g></g></g><g fill="#08bc9e" fill-opacity="1"><g transform="translate(690.061844, 283.896228)"><g><path d="M 2.984375 -14.359375 C 2.609375 -14.359375 2.300781 -14.472656 2.0625 -14.703125 C 1.832031 -14.941406 1.71875 -15.242188 1.71875 -15.609375 C 1.71875 -15.972656 1.832031 -16.269531 2.0625 -16.5 C 2.300781 -16.738281 2.609375 -16.859375 2.984375 -16.859375 C 3.367188 -16.859375 3.675781 -16.738281 3.90625 -16.5 C 4.144531 -16.269531 4.265625 -15.972656 4.265625 -15.609375 C 4.265625 -15.242188 4.144531 -14.941406 3.90625 -14.703125 C 3.675781 -14.472656 3.367188 -14.359375 2.984375 -14.359375 Z M 2.09375 0 L 2.09375 -12.03125 L 3.875 -12.03125 L 3.875 0 Z M 2.09375 0 "/></g></g></g><g fill="#08bc9e" fill-opacity="1"><g transform="translate(696.028407, 283.896228)"><g><path d="M 2.09375 0 L 2.09375 -12.03125 L 3.78125 -12.03125 L 3.78125 -10.140625 L 4.015625 -10.09375 C 4.410156 -10.800781 4.921875 -11.335938 5.546875 -11.703125 C 6.171875 -12.078125 6.929688 -12.265625 7.828125 -12.265625 C 9.273438 -12.265625 10.320312 -11.894531 10.96875 -11.15625 C 11.625 -10.414062 11.953125 -9.28125 11.953125 -7.75 L 11.953125 0 L 10.171875 0 L 10.171875 -7.703125 C 10.171875 -8.429688 10.078125 -9.015625 9.890625 -9.453125 C 9.703125 -9.890625 9.410156 -10.207031 9.015625 -10.40625 C 8.628906 -10.613281 8.125 -10.71875 7.5 -10.71875 C 6.414062 -10.71875 5.539062 -10.359375 4.875 -9.640625 C 4.207031 -8.921875 3.875 -7.765625 3.875 -6.171875 L 3.875 0 Z M 2.09375 0 "/></g></g></g><g fill="#08bc9e" fill-opacity="1"><g transform="translate(709.881255, 283.896228)"><g/></g></g><g fill="#08bc9e" fill-opacity="1"><g transform="translate(715.35694, 283.896228)"><g><path d="M 8.109375 -15.953125 C 9.210938 -15.953125 10.15625 -15.753906 10.9375 -15.359375 C 11.726562 -14.960938 12.328125 -14.398438 12.734375 -13.671875 C 13.148438 -12.941406 13.359375 -12.082031 13.359375 -11.09375 C 13.359375 -10.101562 13.148438 -9.242188 12.734375 -8.515625 C 12.328125 -7.796875 11.726562 -7.234375 10.9375 -6.828125 C 10.15625 -6.429688 9.210938 -6.234375 8.109375 -6.234375 L 4.28125 -6.234375 L 4.28125 0 L 2.40625 0 L 2.40625 -15.953125 Z M 8.0625 -7.84375 C 10.28125 -7.84375 11.390625 -8.925781 11.390625 -11.09375 C 11.390625 -13.269531 10.28125 -14.359375 8.0625 -14.359375 L 4.28125 -14.359375 L 4.28125 -7.84375 Z M 8.0625 -7.84375 "/></g></g></g><g fill="#08bc9e" fill-opacity="1"><g transform="translate(729.897017, 283.896228)"><g><path d="M 4.96875 0.234375 C 3.78125 0.234375 2.851562 -0.0703125 2.1875 -0.6875 C 1.519531 -1.3125 1.1875 -2.195312 1.1875 -3.34375 C 1.1875 -4.0625 1.332031 -4.664062 1.625 -5.15625 C 1.925781 -5.644531 2.382812 -6.039062 3 -6.34375 C 3.613281 -6.65625 4.421875 -6.894531 5.421875 -7.0625 C 6.296875 -7.207031 6.957031 -7.367188 7.40625 -7.546875 C 7.863281 -7.734375 8.171875 -7.941406 8.328125 -8.171875 C 8.484375 -8.398438 8.5625 -8.679688 8.5625 -9.015625 C 8.5625 -9.566406 8.375 -9.988281 8 -10.28125 C 7.625 -10.570312 7.023438 -10.71875 6.203125 -10.71875 C 5.421875 -10.71875 4.75 -10.566406 4.1875 -10.265625 C 3.632812 -9.960938 3.125 -9.507812 2.65625 -8.90625 L 2.4375 -8.90625 L 1.578125 -10.140625 C 2.078125 -10.796875 2.71875 -11.3125 3.5 -11.6875 C 4.289062 -12.070312 5.191406 -12.265625 6.203125 -12.265625 C 7.617188 -12.265625 8.660156 -11.953125 9.328125 -11.328125 C 10.003906 -10.703125 10.34375 -9.84375 10.34375 -8.75 L 10.34375 -2.375 C 10.34375 -1.695312 10.625 -1.359375 11.1875 -1.359375 C 11.382812 -1.359375 11.566406 -1.394531 11.734375 -1.46875 L 11.890625 -1.421875 L 12.09375 -0.1875 C 11.96875 -0.09375 11.796875 -0.0234375 11.578125 0.015625 C 11.367188 0.0664062 11.148438 0.09375 10.921875 0.09375 C 10.253906 0.09375 9.75 -0.0507812 9.40625 -0.34375 C 9.070312 -0.632812 8.859375 -1.066406 8.765625 -1.640625 L 8.546875 -1.65625 C 8.203125 -1.019531 7.738281 -0.546875 7.15625 -0.234375 C 6.570312 0.078125 5.84375 0.234375 4.96875 0.234375 Z M 5.359375 -1.1875 C 6.023438 -1.1875 6.601562 -1.335938 7.09375 -1.640625 C 7.582031 -1.953125 7.957031 -2.390625 8.21875 -2.953125 C 8.488281 -3.515625 8.625 -4.164062 8.625 -4.90625 L 8.625 -6.421875 L 8.40625 -6.46875 C 8.144531 -6.28125 7.816406 -6.117188 7.421875 -5.984375 C 7.035156 -5.859375 6.5 -5.75 5.8125 -5.65625 C 5.113281 -5.5625 4.554688 -5.414062 4.140625 -5.21875 C 3.734375 -5.019531 3.441406 -4.769531 3.265625 -4.46875 C 3.097656 -4.164062 3.015625 -3.789062 3.015625 -3.34375 C 3.015625 -2.644531 3.21875 -2.109375 3.625 -1.734375 C 4.039062 -1.367188 4.617188 -1.1875 5.359375 -1.1875 Z M 5.359375 -1.1875 "/></g></g></g><g fill="#08bc9e" fill-opacity="1"><g transform="translate(742.342757, 283.896228)"><g><path d="M 2.40625 5.109375 C 2 5.109375 1.617188 5.070312 1.265625 5 C 0.910156 4.9375 0.609375 4.84375 0.359375 4.71875 L 0.6875 3.3125 L 0.890625 3.234375 C 1.054688 3.328125 1.269531 3.40625 1.53125 3.46875 C 1.800781 3.53125 2.070312 3.5625 2.34375 3.5625 C 2.832031 3.5625 3.234375 3.492188 3.546875 3.359375 C 3.867188 3.222656 4.144531 3.003906 4.375 2.703125 C 4.601562 2.410156 4.816406 2 5.015625 1.46875 L 5.4375 0.28125 L 0.609375 -12.03125 L 2.53125 -12.03125 L 6.3125 -2.21875 L 6.53125 -2.21875 L 10.1875 -12.03125 L 12.015625 -12.03125 L 6.640625 1.890625 C 6.328125 2.660156 5.984375 3.28125 5.609375 3.75 C 5.234375 4.21875 4.785156 4.5625 4.265625 4.78125 C 3.742188 5 3.125 5.109375 2.40625 5.109375 Z M 2.40625 5.109375 "/></g></g></g><g fill="#08bc9e" fill-opacity="1"><g transform="translate(755.028503, 283.896228)"><g><path d="M 2.09375 0 L 2.09375 -12.03125 L 3.78125 -12.03125 L 3.78125 -10.25 L 4.015625 -10.21875 C 4.421875 -10.882812 4.910156 -11.390625 5.484375 -11.734375 C 6.066406 -12.085938 6.765625 -12.265625 7.578125 -12.265625 C 8.503906 -12.265625 9.222656 -12.085938 9.734375 -11.734375 C 10.242188 -11.378906 10.640625 -10.8125 10.921875 -10.03125 L 11.15625 -10.03125 C 11.5625 -10.757812 12.066406 -11.3125 12.671875 -11.6875 C 13.285156 -12.070312 14.035156 -12.265625 14.921875 -12.265625 C 16.160156 -12.265625 17.082031 -11.925781 17.6875 -11.25 C 18.300781 -10.582031 18.609375 -9.566406 18.609375 -8.203125 L 18.609375 0 L 16.828125 0 L 16.828125 -8.15625 C 16.828125 -9.03125 16.640625 -9.675781 16.265625 -10.09375 C 15.898438 -10.507812 15.3125 -10.71875 14.5 -10.71875 C 13.539062 -10.71875 12.753906 -10.367188 12.140625 -9.671875 C 11.535156 -8.972656 11.234375 -7.820312 11.234375 -6.21875 L 11.234375 0 L 9.453125 0 L 9.453125 -8.15625 C 9.453125 -9.03125 9.269531 -9.675781 8.90625 -10.09375 C 8.539062 -10.507812 7.953125 -10.71875 7.140625 -10.71875 C 6.171875 -10.71875 5.382812 -10.378906 4.78125 -9.703125 C 4.175781 -9.023438 3.875 -7.925781 3.875 -6.40625 L 3.875 0 Z M 2.09375 0 "/></g></g></g><g fill="#08bc9e" fill-opacity="1"><g transform="translate(775.535097, 283.896228)"><g><path d="M 11.46875 -5.609375 L 3.203125 -5.609375 C 3.242188 -4.148438 3.585938 -3.078125 4.234375 -2.390625 C 4.890625 -1.703125 5.785156 -1.359375 6.921875 -1.359375 C 7.785156 -1.359375 8.476562 -1.507812 9 -1.8125 C 9.519531 -2.125 9.929688 -2.609375 10.234375 -3.265625 L 10.46875 -3.265625 L 11.625 -2.578125 C 11.269531 -1.703125 10.707031 -1.015625 9.9375 -0.515625 C 9.175781 -0.015625 8.171875 0.234375 6.921875 0.234375 C 5.765625 0.234375 4.765625 0.00390625 3.921875 -0.453125 C 3.085938 -0.910156 2.441406 -1.601562 1.984375 -2.53125 C 1.535156 -3.46875 1.3125 -4.628906 1.3125 -6.015625 C 1.3125 -7.378906 1.550781 -8.53125 2.03125 -9.46875 C 2.507812 -10.40625 3.160156 -11.101562 3.984375 -11.5625 C 4.804688 -12.03125 5.75 -12.265625 6.8125 -12.265625 C 8.351562 -12.265625 9.554688 -11.828125 10.421875 -10.953125 C 11.296875 -10.085938 11.734375 -8.800781 11.734375 -7.09375 C 11.734375 -6.425781 11.722656 -5.972656 11.703125 -5.734375 Z M 9.984375 -7.09375 C 9.953125 -8.375 9.664062 -9.300781 9.125 -9.875 C 8.59375 -10.457031 7.820312 -10.75 6.8125 -10.75 C 5.757812 -10.75 4.929688 -10.457031 4.328125 -9.875 C 3.734375 -9.289062 3.367188 -8.363281 3.234375 -7.09375 Z M 9.984375 -7.09375 "/></g></g></g><g fill="#08bc9e" fill-opacity="1"><g transform="translate(788.362626, 283.896228)"><g><path d="M 2.09375 0 L 2.09375 -12.03125 L 3.78125 -12.03125 L 3.78125 -10.140625 L 4.015625 -10.09375 C 4.410156 -10.800781 4.921875 -11.335938 5.546875 -11.703125 C 6.171875 -12.078125 6.929688 -12.265625 7.828125 -12.265625 C 9.273438 -12.265625 10.320312 -11.894531 10.96875 -11.15625 C 11.625 -10.414062 11.953125 -9.28125 11.953125 -7.75 L 11.953125 0 L 10.171875 0 L 10.171875 -7.703125 C 10.171875 -8.429688 10.078125 -9.015625 9.890625 -9.453125 C 9.703125 -9.890625 9.410156 -10.207031 9.015625 -10.40625 C 8.628906 -10.613281 8.125 -10.71875 7.5 -10.71875 C 6.414062 -10.71875 5.539062 -10.359375 4.875 -9.640625 C 4.207031 -8.921875 3.875 -7.765625 3.875 -6.171875 L 3.875 0 Z M 2.09375 0 "/></g></g></g><g fill="#08bc9e" fill-opacity="1"><g transform="translate(802.215474, 283.896228)"><g><path d="M 8.140625 -1.90625 L 8.703125 -0.625 C 8.421875 -0.34375 8.046875 -0.128906 7.578125 0.015625 C 7.117188 0.160156 6.625 0.234375 6.09375 0.234375 C 3.789062 0.234375 2.640625 -0.929688 2.640625 -3.265625 L 2.640625 -10.578125 L 0.546875 -10.578125 L 0.546875 -12.046875 L 2.640625 -12.046875 L 2.640625 -14.59375 L 4.421875 -14.875 L 4.421875 -12.046875 L 8.296875 -12.046875 L 8.296875 -10.578125 L 4.421875 -10.578125 L 4.421875 -3.4375 C 4.421875 -2.050781 5.019531 -1.359375 6.21875 -1.359375 C 6.875 -1.359375 7.4375 -1.539062 7.90625 -1.90625 Z M 8.140625 -1.90625 "/></g></g></g><g fill="#08bc9e" fill-opacity="1"><g transform="translate(811.377995, 283.896228)"><g/></g></g><g fill="#08bc9e" fill-opacity="1"><g transform="translate(816.85368, 283.896228)"><g><path d="M 8.390625 0.234375 C 7.046875 0.234375 5.863281 -0.0703125 4.84375 -0.6875 C 3.820312 -1.300781 3.023438 -2.222656 2.453125 -3.453125 C 1.878906 -4.679688 1.59375 -6.1875 1.59375 -7.96875 C 1.59375 -9.757812 1.898438 -11.269531 2.515625 -12.5 C 3.128906 -13.726562 3.976562 -14.644531 5.0625 -15.25 C 6.15625 -15.863281 7.414062 -16.171875 8.84375 -16.171875 C 10.375 -16.171875 11.628906 -15.894531 12.609375 -15.34375 C 13.585938 -14.800781 14.285156 -13.984375 14.703125 -12.890625 L 13.46875 -12.171875 L 13.203125 -12.171875 C 12.785156 -13.003906 12.222656 -13.597656 11.515625 -13.953125 C 10.816406 -14.316406 9.925781 -14.5 8.84375 -14.5 C 5.34375 -14.5 3.59375 -12.320312 3.59375 -7.96875 C 3.59375 -5.707031 4.03125 -4.054688 4.90625 -3.015625 C 5.789062 -1.984375 7.03125 -1.46875 8.625 -1.46875 C 10.070312 -1.46875 11.15625 -1.796875 11.875 -2.453125 C 12.601562 -3.117188 12.96875 -4.164062 12.96875 -5.59375 L 12.96875 -7 L 8.4375 -7 L 8.4375 -8.5 L 14.796875 -8.5 L 14.796875 0 L 13.0625 0 L 13.0625 -2.140625 L 12.828125 -2.1875 C 12.410156 -1.363281 11.820312 -0.753906 11.0625 -0.359375 C 10.3125 0.0351562 9.421875 0.234375 8.390625 0.234375 Z M 8.390625 0.234375 "/></g></g></g><g fill="#08bc9e" fill-opacity="1"><g transform="translate(833.43348, 283.896228)"><g><path d="M 4.96875 0.234375 C 3.78125 0.234375 2.851562 -0.0703125 2.1875 -0.6875 C 1.519531 -1.3125 1.1875 -2.195312 1.1875 -3.34375 C 1.1875 -4.0625 1.332031 -4.664062 1.625 -5.15625 C 1.925781 -5.644531 2.382812 -6.039062 3 -6.34375 C 3.613281 -6.65625 4.421875 -6.894531 5.421875 -7.0625 C 6.296875 -7.207031 6.957031 -7.367188 7.40625 -7.546875 C 7.863281 -7.734375 8.171875 -7.941406 8.328125 -8.171875 C 8.484375 -8.398438 8.5625 -8.679688 8.5625 -9.015625 C 8.5625 -9.566406 8.375 -9.988281 8 -10.28125 C 7.625 -10.570312 7.023438 -10.71875 6.203125 -10.71875 C 5.421875 -10.71875 4.75 -10.566406 4.1875 -10.265625 C 3.632812 -9.960938 3.125 -9.507812 2.65625 -8.90625 L 2.4375 -8.90625 L 1.578125 -10.140625 C 2.078125 -10.796875 2.71875 -11.3125 3.5 -11.6875 C 4.289062 -12.070312 5.191406 -12.265625 6.203125 -12.265625 C 7.617188 -12.265625 8.660156 -11.953125 9.328125 -11.328125 C 10.003906 -10.703125 10.34375 -9.84375 10.34375 -8.75 L 10.34375 -2.375 C 10.34375 -1.695312 10.625 -1.359375 11.1875 -1.359375 C 11.382812 -1.359375 11.566406 -1.394531 11.734375 -1.46875 L 11.890625 -1.421875 L 12.09375 -0.1875 C 11.96875 -0.09375 11.796875 -0.0234375 11.578125 0.015625 C 11.367188 0.0664062 11.148438 0.09375 10.921875 0.09375 C 10.253906 0.09375 9.75 -0.0507812 9.40625 -0.34375 C 9.070312 -0.632812 8.859375 -1.066406 8.765625 -1.640625 L 8.546875 -1.65625 C 8.203125 -1.019531 7.738281 -0.546875 7.15625 -0.234375 C 6.570312 0.078125 5.84375 0.234375 4.96875 0.234375 Z M 5.359375 -1.1875 C 6.023438 -1.1875 6.601562 -1.335938 7.09375 -1.640625 C 7.582031 -1.953125 7.957031 -2.390625 8.21875 -2.953125 C 8.488281 -3.515625 8.625 -4.164062 8.625 -4.90625 L 8.625 -6.421875 L 8.40625 -6.46875 C 8.144531 -6.28125 7.816406 -6.117188 7.421875 -5.984375 C 7.035156 -5.859375 6.5 -5.75 5.8125 -5.65625 C 5.113281 -5.5625 4.554688 -5.414062 4.140625 -5.21875 C 3.734375 -5.019531 3.441406 -4.769531 3.265625 -4.46875 C 3.097656 -4.164062 3.015625 -3.789062 3.015625 -3.34375 C 3.015625 -2.644531 3.21875 -2.109375 3.625 -1.734375 C 4.039062 -1.367188 4.617188 -1.1875 5.359375 -1.1875 Z M 5.359375 -1.1875 "/></g></g></g><g fill="#08bc9e" fill-opacity="1"><g transform="translate(845.879266, 283.896228)"><g><path d="M 8.140625 -1.90625 L 8.703125 -0.625 C 8.421875 -0.34375 8.046875 -0.128906 7.578125 0.015625 C 7.117188 0.160156 6.625 0.234375 6.09375 0.234375 C 3.789062 0.234375 2.640625 -0.929688 2.640625 -3.265625 L 2.640625 -10.578125 L 0.546875 -10.578125 L 0.546875 -12.046875 L 2.640625 -12.046875 L 2.640625 -14.59375 L 4.421875 -14.875 L 4.421875 -12.046875 L 8.296875 -12.046875 L 8.296875 -10.578125 L 4.421875 -10.578125 L 4.421875 -3.4375 C 4.421875 -2.050781 5.019531 -1.359375 6.21875 -1.359375 C 6.875 -1.359375 7.4375 -1.539062 7.90625 -1.90625 Z M 8.140625 -1.90625 "/></g></g></g><g fill="#08bc9e" fill-opacity="1"><g transform="translate(855.041787, 283.896228)"><g><path d="M 11.46875 -5.609375 L 3.203125 -5.609375 C 3.242188 -4.148438 3.585938 -3.078125 4.234375 -2.390625 C 4.890625 -1.703125 5.785156 -1.359375 6.921875 -1.359375 C 7.785156 -1.359375 8.476562 -1.507812 9 -1.8125 C 9.519531 -2.125 9.929688 -2.609375 10.234375 -3.265625 L 10.46875 -3.265625 L 11.625 -2.578125 C 11.269531 -1.703125 10.707031 -1.015625 9.9375 -0.515625 C 9.175781 -0.015625 8.171875 0.234375 6.921875 0.234375 C 5.765625 0.234375 4.765625 0.00390625 3.921875 -0.453125 C 3.085938 -0.910156 2.441406 -1.601562 1.984375 -2.53125 C 1.535156 -3.46875 1.3125 -4.628906 1.3125 -6.015625 C 1.3125 -7.378906 1.550781 -8.53125 2.03125 -9.46875 C 2.507812 -10.40625 3.160156 -11.101562 3.984375 -11.5625 C 4.804688 -12.03125 5.75 -12.265625 6.8125 -12.265625 C 8.351562 -12.265625 9.554688 -11.828125 10.421875 -10.953125 C 11.296875 -10.085938 11.734375 -8.800781 11.734375 -7.09375 C 11.734375 -6.425781 11.722656 -5.972656 11.703125 -5.734375 Z M 9.984375 -7.09375 C 9.953125 -8.375 9.664062 -9.300781 9.125 -9.875 C 8.59375 -10.457031 7.820312 -10.75 6.8125 -10.75 C 5.757812 -10.75 4.929688 -10.457031 4.328125 -9.875 C 3.734375 -9.289062 3.367188 -8.363281 3.234375 -7.09375 Z M 9.984375 -7.09375 "/></g></g></g><g fill="#08bc9e" fill-opacity="1"><g transform="translate(867.869317, 283.896228)"><g><path d="M 5.96875 0 L 3.71875 0 L 0.78125 -12.03125 L 2.53125 -12.03125 L 4.8125 -2.078125 L 5.046875 -2.078125 L 7.84375 -12.03125 L 9.703125 -12.03125 L 12.59375 -2.078125 L 12.828125 -2.078125 L 15.0625 -12.03125 L 16.765625 -12.03125 L 13.859375 0 L 11.59375 0 L 8.84375 -9.34375 L 8.625 -9.34375 Z M 5.96875 0 "/></g></g></g><g fill="#08bc9e" fill-opacity="1"><g transform="translate(885.408999, 283.896228)"><g><path d="M 4.96875 0.234375 C 3.78125 0.234375 2.851562 -0.0703125 2.1875 -0.6875 C 1.519531 -1.3125 1.1875 -2.195312 1.1875 -3.34375 C 1.1875 -4.0625 1.332031 -4.664062 1.625 -5.15625 C 1.925781 -5.644531 2.382812 -6.039062 3 -6.34375 C 3.613281 -6.65625 4.421875 -6.894531 5.421875 -7.0625 C 6.296875 -7.207031 6.957031 -7.367188 7.40625 -7.546875 C 7.863281 -7.734375 8.171875 -7.941406 8.328125 -8.171875 C 8.484375 -8.398438 8.5625 -8.679688 8.5625 -9.015625 C 8.5625 -9.566406 8.375 -9.988281 8 -10.28125 C 7.625 -10.570312 7.023438 -10.71875 6.203125 -10.71875 C 5.421875 -10.71875 4.75 -10.566406 4.1875 -10.265625 C 3.632812 -9.960938 3.125 -9.507812 2.65625 -8.90625 L 2.4375 -8.90625 L 1.578125 -10.140625 C 2.078125 -10.796875 2.71875 -11.3125 3.5 -11.6875 C 4.289062 -12.070312 5.191406 -12.265625 6.203125 -12.265625 C 7.617188 -12.265625 8.660156 -11.953125 9.328125 -11.328125 C 10.003906 -10.703125 10.34375 -9.84375 10.34375 -8.75 L 10.34375 -2.375 C 10.34375 -1.695312 10.625 -1.359375 11.1875 -1.359375 C 11.382812 -1.359375 11.566406 -1.394531 11.734375 -1.46875 L 11.890625 -1.421875 L 12.09375 -0.1875 C 11.96875 -0.09375 11.796875 -0.0234375 11.578125 0.015625 C 11.367188 0.0664062 11.148438 0.09375 10.921875 0.09375 C 10.253906 0.09375 9.75 -0.0507812 9.40625 -0.34375 C 9.070312 -0.632812 8.859375 -1.066406 8.765625 -1.640625 L 8.546875 -1.65625 C 8.203125 -1.019531 7.738281 -0.546875 7.15625 -0.234375 C 6.570312 0.078125 5.84375 0.234375 4.96875 0.234375 Z M 5.359375 -1.1875 C 6.023438 -1.1875 6.601562 -1.335938 7.09375 -1.640625 C 7.582031 -1.953125 7.957031 -2.390625 8.21875 -2.953125 C 8.488281 -3.515625 8.625 -4.164062 8.625 -4.90625 L 8.625 -6.421875 L 8.40625 -6.46875 C 8.144531 -6.28125 7.816406 -6.117188 7.421875 -5.984375 C 7.035156 -5.859375 6.5 -5.75 5.8125 -5.65625 C 5.113281 -5.5625 4.554688 -5.414062 4.140625 -5.21875 C 3.734375 -5.019531 3.441406 -4.769531 3.265625 -4.46875 C 3.097656 -4.164062 3.015625 -3.789062 3.015625 -3.34375 C 3.015625 -2.644531 3.21875 -2.109375 3.625 -1.734375 C 4.039062 -1.367188 4.617188 -1.1875 5.359375 -1.1875 Z M 5.359375 -1.1875 "/></g></g></g><g fill="#08bc9e" fill-opacity="1"><g transform="translate(897.854786, 283.896228)"><g><path d="M 2.40625 5.109375 C 2 5.109375 1.617188 5.070312 1.265625 5 C 0.910156 4.9375 0.609375 4.84375 0.359375 4.71875 L 0.6875 3.3125 L 0.890625 3.234375 C 1.054688 3.328125 1.269531 3.40625 1.53125 3.46875 C 1.800781 3.53125 2.070312 3.5625 2.34375 3.5625 C 2.832031 3.5625 3.234375 3.492188 3.546875 3.359375 C 3.867188 3.222656 4.144531 3.003906 4.375 2.703125 C 4.601562 2.410156 4.816406 2 5.015625 1.46875 L 5.4375 0.28125 L 0.609375 -12.03125 L 2.53125 -12.03125 L 6.3125 -2.21875 L 6.53125 -2.21875 L 10.1875 -12.03125 L 12.015625 -12.03125 L 6.640625 1.890625 C 6.328125 2.660156 5.984375 3.28125 5.609375 3.75 C 5.234375 4.21875 4.785156 4.5625 4.265625 4.78125 C 3.742188 5 3.125 5.109375 2.40625 5.109375 Z M 2.40625 5.109375 "/></g></g></g></svg>