<?xml version="1.0" encoding="utf-8"?>
<svg width="100" height="29" viewBox="0 0 100 29" fill="none" xmlns="http://www.w3.org/2000/svg">
  <defs>
    <clipPath id="75277ac8ff">
      <path d="M 7.910156 46.070312 L 249.546875 46.070312 L 249.546875 288.652344 L 7.910156 288.652344 Z M 7.910156 46.070312 " clip-rule="nonzero"/>
    </clipPath>
    <clipPath id="d593667348">
      <path d="M 27.363281 46.070312 L 230.09375 46.070312 C 240.835938 46.070312 249.546875 54.78125 249.546875 65.523438 L 249.546875 268.941406 C 249.546875 279.6875 240.835938 288.394531 230.09375 288.394531 L 27.363281 288.394531 C 16.621094 288.394531 7.910156 279.6875 7.910156 268.941406 L 7.910156 65.523438 C 7.910156 54.78125 16.621094 46.070312 27.363281 46.070312 Z M 27.363281 46.070312 " clip-rule="nonzero"/>
    </clipPath>
  </defs>
  <g clip-path="url(#75277ac8ff)" transform="matrix(0.080184, 0, 0, 0.077158, 10.111644, 1.958974)" style="">
    <g clip-path="url(#d593667348)">
      <path d="M 7.910156 46.070312 L 249.546875 46.070312 L 249.546875 288.652344 L 7.910156 288.652344 Z M 7.910156 46.070312 " fill-opacity="1" fill-rule="nonzero" style="fill: rgb(154, 228, 215);"/>
    </g>
  </g>
  <g fill="#ffffff" fill-opacity="1" transform="matrix(0.080184, 0, 0, 0.077158, 10.111644, 1.958974)" style="">
    <g transform="translate(30.817129, 203.562669)">
      <g>
        <path d="M 35.625 0 L 7.484375 0 L 7.484375 -67.09375 L 84.578125 -67.09375 L 84.578125 -50.5 L 35.625 -50.5 L 35.625 -39.96875 L 77 -39.96875 L 77 -27.0625 L 35.625 -27.0625 Z M 35.625 0 "/>
      </g>
    </g>
  </g>
  <g fill="#ffffff" fill-opacity="1" transform="matrix(0.080184, 0, 0, 0.077158, 10.111644, 1.958974)" style="">
    <g transform="translate(119.120297, 203.562669)">
      <g>
        <path d="M 55.59375 0 L 7.484375 0 L 7.484375 -67.046875 L 56.625 -67.046875 C 65.34375 -67.046875 72.523438 -66.644531 78.171875 -65.84375 C 83.816406 -65.050781 88.164062 -63.804688 91.21875 -62.109375 C 94.269531 -60.410156 96.335938 -58.25 97.421875 -55.625 C 98.515625 -53.007812 99.0625 -49.878906 99.0625 -46.234375 C 98.96875 -43.367188 98.179688 -40.992188 96.703125 -39.109375 C 95.222656 -37.222656 93.492188 -35.816406 91.515625 -34.890625 C 89.535156 -33.972656 87.800781 -33.515625 86.3125 -33.515625 C 87.769531 -33.515625 89.476562 -33.226562 91.4375 -32.65625 C 93.40625 -32.082031 95.316406 -31.25 97.171875 -30.15625 C 99.023438 -29.0625 100.566406 -27.734375 101.796875 -26.171875 C 103.035156 -24.617188 103.65625 -22.847656 103.65625 -20.859375 C 103.65625 -18.234375 103.347656 -15.828125 102.734375 -13.640625 C 102.128906 -11.460938 100.914062 -9.53125 99.09375 -7.84375 C 97.269531 -6.164062 94.582031 -4.742188 91.03125 -3.578125 C 87.476562 -2.410156 82.828125 -1.519531 77.078125 -0.90625 C 71.328125 -0.300781 64.164062 0 55.59375 0 Z M 54 -39.265625 C 58.113281 -39.265625 61.300781 -39.46875 63.5625 -39.875 C 65.820312 -40.28125 67.382812 -40.894531 68.25 -41.71875 C 69.125 -42.550781 69.5625 -43.609375 69.5625 -44.890625 C 69.5625 -46.191406 69.125 -47.253906 68.25 -48.078125 C 67.382812 -48.910156 65.820312 -49.519531 63.5625 -49.90625 C 61.300781 -50.300781 58.113281 -50.5 54 -50.5 L 35.625 -50.5 L 35.625 -39.265625 Z M 54 -16.546875 C 58.207031 -16.546875 61.617188 -16.65625 64.234375 -16.875 C 66.859375 -17.09375 68.773438 -17.59375 69.984375 -18.375 C 71.203125 -19.15625 71.8125 -20.414062 71.8125 -22.15625 C 71.8125 -23.90625 71.203125 -25.175781 69.984375 -25.96875 C 68.773438 -26.757812 66.859375 -27.253906 64.234375 -27.453125 C 61.617188 -27.660156 58.207031 -27.765625 54 -27.765625 L 35.625 -27.765625 L 35.625 -16.546875 Z M 54 -16.546875 "/>
      </g>
    </g>
  </g>
  <g fill="#eeeeee" fill-opacity="1" transform="matrix(0.091827, 0, 0, 0.079196, 9.360555, 3.611223)" style="">
    <g transform="translate(283.805719, 127.590024)">
      <g>
        <path d="M 8.265625 -76.875 L 70.390625 -76.875 L 70.390625 -58.4375 L 32.96875 -58.4375 L 32.96875 -45.25 L 65.140625 -45.25 L 65.140625 -27.59375 L 32.96875 -27.59375 L 32.96875 0 L 8.265625 0 Z M 8.265625 -76.875 " style="fill: rgb(154, 228, 215);"/>
      </g>
    </g>
  </g>
  <g fill="#eeeeee" fill-opacity="1" transform="matrix(0.091827, 0, 0, 0.079196, 9.360555, 3.611223)" style="">
    <g transform="translate(358.322557, 127.590024)">
      <g>
        <path d="M 46.484375 -78.21875 C 59.742188 -78.21875 69.984375 -74.828125 77.203125 -68.046875 C 84.429688 -61.265625 88.046875 -51.394531 88.046875 -38.4375 C 88.046875 -25.476562 84.429688 -15.609375 77.203125 -8.828125 C 69.984375 -2.046875 59.742188 1.34375 46.484375 1.34375 C 33.222656 1.34375 23 -2.023438 15.8125 -8.765625 C 8.625 -15.515625 5.03125 -25.40625 5.03125 -38.4375 C 5.03125 -51.46875 8.625 -61.351562 15.8125 -68.09375 C 23 -74.84375 33.222656 -78.21875 46.484375 -78.21875 Z M 46.484375 -59.78125 C 41.191406 -59.78125 37.164062 -58.175781 34.40625 -54.96875 C 31.65625 -51.769531 30.28125 -47.453125 30.28125 -42.015625 L 30.28125 -34.859375 C 30.28125 -29.421875 31.65625 -25.097656 34.40625 -21.890625 C 37.164062 -18.691406 41.191406 -17.09375 46.484375 -17.09375 C 51.773438 -17.09375 55.816406 -18.691406 58.609375 -21.890625 C 61.398438 -25.097656 62.796875 -29.421875 62.796875 -34.859375 L 62.796875 -42.015625 C 62.796875 -47.453125 61.398438 -51.769531 58.609375 -54.96875 C 55.816406 -58.175781 51.773438 -59.78125 46.484375 -59.78125 Z M 46.484375 -59.78125 " style="fill: rgb(154, 228, 215);"/>
      </g>
    </g>
  </g>
  <g fill="#eeeeee" fill-opacity="1" transform="matrix(0.091827, 0, 0, 0.079196, 9.360555, 3.611223)" style="">
    <g transform="translate(451.384809, 127.590024)">
      <g>
        <path d="M 81.234375 -53.296875 C 81.234375 -48.609375 79.96875 -44.363281 77.4375 -40.5625 C 74.90625 -36.757812 71.21875 -33.960938 66.375 -32.171875 L 83.46875 0 L 55.75 0 L 42.125 -28.046875 L 32.96875 -28.046875 L 32.96875 0 L 8.265625 0 L 8.265625 -76.875 L 55.3125 -76.875 C 60.820312 -76.875 65.53125 -75.8125 69.4375 -73.6875 C 73.351562 -71.5625 76.296875 -68.691406 78.265625 -65.078125 C 80.242188 -61.472656 81.234375 -57.546875 81.234375 -53.296875 Z M 56.09375 -52.296875 C 56.09375 -54.304688 55.421875 -55.976562 54.078125 -57.3125 C 52.734375 -58.65625 51.09375 -59.328125 49.15625 -59.328125 L 32.96875 -59.328125 L 32.96875 -45.140625 L 49.15625 -45.140625 C 51.09375 -45.140625 52.734375 -45.828125 54.078125 -47.203125 C 55.421875 -48.585938 56.09375 -50.285156 56.09375 -52.296875 Z M 56.09375 -52.296875 " style="fill: rgb(154, 228, 215);"/>
      </g>
    </g>
  </g>
  <g fill="#eeeeee" fill-opacity="1" transform="matrix(0.091827, 0, 0, 0.079196, 9.360555, 3.611223)" style="">
    <g transform="translate(538.302489, 127.590024)">
      <g>
        <path d="M 46.921875 -78.21875 C 54.296875 -78.21875 60.925781 -77.097656 66.8125 -74.859375 C 72.695312 -72.628906 77.367188 -69.332031 80.828125 -64.96875 C 84.296875 -60.613281 86.03125 -55.304688 86.03125 -49.046875 L 62.453125 -49.046875 C 62.453125 -52.253906 61.035156 -54.84375 58.203125 -56.8125 C 55.378906 -58.789062 51.957031 -59.78125 47.9375 -59.78125 C 42.125 -59.78125 37.726562 -58.234375 34.75 -55.140625 C 31.769531 -52.046875 30.28125 -47.671875 30.28125 -42.015625 L 30.28125 -34.859375 C 30.28125 -29.203125 31.769531 -24.828125 34.75 -21.734375 C 37.726562 -18.640625 42.125 -17.09375 47.9375 -17.09375 C 51.957031 -17.09375 55.378906 -18.039062 58.203125 -19.9375 C 61.035156 -21.84375 62.453125 -24.285156 62.453125 -27.265625 L 45.03125 -27.265625 L 45.03125 -42.90625 L 86.03125 -42.90625 L 86.03125 0 L 73.296875 0 L 70.84375 -7.59375 C 63.84375 -1.632812 54.679688 1.34375 43.359375 1.34375 C 30.617188 1.34375 21.046875 -1.988281 14.640625 -8.65625 C 8.234375 -15.320312 5.03125 -25.25 5.03125 -38.4375 C 5.03125 -51.46875 8.660156 -61.351562 15.921875 -68.09375 C 23.179688 -74.84375 33.515625 -78.21875 46.921875 -78.21875 Z M 46.921875 -78.21875 " style="fill: rgb(154, 228, 215);"/>
      </g>
    </g>
  </g>
  <g fill="#eeeeee" fill-opacity="1" transform="matrix(0.091827, 0, 0, 0.079196, 9.360555, 3.611223)" style="">
    <g transform="translate(631.36473, 127.590024)">
      <g>
        <path d="M 9.390625 0 L 9.390625 -76.875 L 34.078125 -76.875 L 34.078125 0 Z M 9.390625 0 " style="fill: rgb(154, 228, 215);"/>
      </g>
    </g>
  </g>
  <g fill="#eeeeee" fill-opacity="1" transform="matrix(0.091827, 0, 0, 0.079196, 9.360555, 3.611223)" style="">
    <g transform="translate(674.823558, 127.590024)">
      <g>
        <path d="M 63.234375 0 L 30.953125 -37.3125 L 30.953125 0 L 8.265625 0 L 8.265625 -76.875 L 29.828125 -76.875 L 62.125 -39 L 62.125 -76.875 L 84.8125 -76.875 L 84.8125 0 Z M 63.234375 0 " style="fill: rgb(154, 228, 215);"/>
      </g>
    </g>
  </g>
  <g fill="#eeeeee" fill-opacity="1" transform="matrix(0.091827, 0, 0, 0.079196, 9.360555, 3.611223)" style="">
    <g transform="translate(767.8858, 127.590024)">
      <g>
        <path d="M 46.921875 -78.21875 C 54.296875 -78.21875 60.925781 -77.097656 66.8125 -74.859375 C 72.695312 -72.628906 77.367188 -69.332031 80.828125 -64.96875 C 84.296875 -60.613281 86.03125 -55.304688 86.03125 -49.046875 L 62.453125 -49.046875 C 62.453125 -52.253906 61.035156 -54.84375 58.203125 -56.8125 C 55.378906 -58.789062 51.957031 -59.78125 47.9375 -59.78125 C 42.125 -59.78125 37.726562 -58.234375 34.75 -55.140625 C 31.769531 -52.046875 30.28125 -47.671875 30.28125 -42.015625 L 30.28125 -34.859375 C 30.28125 -29.203125 31.769531 -24.828125 34.75 -21.734375 C 37.726562 -18.640625 42.125 -17.09375 47.9375 -17.09375 C 51.957031 -17.09375 55.378906 -18.039062 58.203125 -19.9375 C 61.035156 -21.84375 62.453125 -24.285156 62.453125 -27.265625 L 45.03125 -27.265625 L 45.03125 -42.90625 L 86.03125 -42.90625 L 86.03125 0 L 73.296875 0 L 70.84375 -7.59375 C 63.84375 -1.632812 54.679688 1.34375 43.359375 1.34375 C 30.617188 1.34375 21.046875 -1.988281 14.640625 -8.65625 C 8.234375 -15.320312 5.03125 -25.25 5.03125 -38.4375 C 5.03125 -51.46875 8.660156 -61.351562 15.921875 -68.09375 C 23.179688 -74.84375 33.515625 -78.21875 46.921875 -78.21875 Z M 46.921875 -78.21875 " style="fill: rgb(154, 228, 215);"/>
      </g>
    </g>
  </g>
  <g fill="#eeeeee" fill-opacity="1" transform="matrix(0.091827, 0, 0, 0.079196, 9.360555, 3.611223)" style="">
    <g transform="translate(283.805719, 237.033129)">
      <g>
        <path d="M 59.4375 -76.875 C 63.3125 -76.875 66.867188 -76.070312 70.109375 -74.46875 C 73.347656 -72.863281 75.914062 -70.609375 77.8125 -67.703125 C 79.71875 -64.804688 80.671875 -61.566406 80.671875 -57.984375 C 80.671875 -48.523438 76.390625 -42.566406 67.828125 -40.109375 L 67.828125 -39.671875 C 77.578125 -37.429688 82.453125 -31.023438 82.453125 -20.453125 C 82.453125 -16.421875 81.460938 -12.859375 79.484375 -9.765625 C 77.515625 -6.679688 74.816406 -4.28125 71.390625 -2.5625 C 67.972656 -0.851562 64.210938 0 60.109375 0 L 8.265625 0 L 8.265625 -76.875 Z M 32.96875 -46.921875 L 49.9375 -46.921875 C 51.582031 -46.921875 52.941406 -47.5 54.015625 -48.65625 C 55.097656 -49.8125 55.640625 -51.25 55.640625 -52.96875 L 55.640625 -54.078125 C 55.640625 -55.710938 55.082031 -57.109375 53.96875 -58.265625 C 52.851562 -59.421875 51.507812 -60 49.9375 -60 L 32.96875 -60 Z M 32.96875 -17.875 L 51.734375 -17.875 C 53.367188 -17.875 54.726562 -18.453125 55.8125 -19.609375 C 56.894531 -20.765625 57.4375 -22.195312 57.4375 -23.90625 L 57.4375 -25.03125 C 57.4375 -26.738281 56.894531 -28.171875 55.8125 -29.328125 C 54.726562 -30.484375 53.367188 -31.0625 51.734375 -31.0625 L 32.96875 -31.0625 Z M 32.96875 -17.875 " style="fill: rgb(154, 228, 215);"/>
      </g>
    </g>
  </g>
  <g fill="#eeeeee" fill-opacity="1" transform="matrix(0.091827, 0, 0, 0.079196, 9.360555, 3.611223)" style="">
    <g transform="translate(370.72341, 237.033129)">
      <g>
        <path d="M 8.265625 -76.875 L 32.96875 -76.875 L 32.96875 -19.671875 L 72.40625 -19.671875 L 72.40625 0 L 8.265625 0 Z M 8.265625 -76.875 " style="fill: rgb(154, 228, 215);"/>
      </g>
    </g>
  </g>
  <g fill="#eeeeee" fill-opacity="1" transform="matrix(0.091827, 0, 0, 0.079196, 9.360555, 3.611223)" style="">
    <g transform="translate(445.240247, 237.033129)">
      <g>
        <path d="M 46.484375 -78.21875 C 59.742188 -78.21875 69.984375 -74.828125 77.203125 -68.046875 C 84.429688 -61.265625 88.046875 -51.394531 88.046875 -38.4375 C 88.046875 -25.476562 84.429688 -15.609375 77.203125 -8.828125 C 69.984375 -2.046875 59.742188 1.34375 46.484375 1.34375 C 33.222656 1.34375 23 -2.023438 15.8125 -8.765625 C 8.625 -15.515625 5.03125 -25.40625 5.03125 -38.4375 C 5.03125 -51.46875 8.625 -61.351562 15.8125 -68.09375 C 23 -74.84375 33.222656 -78.21875 46.484375 -78.21875 Z M 46.484375 -59.78125 C 41.191406 -59.78125 37.164062 -58.175781 34.40625 -54.96875 C 31.65625 -51.769531 30.28125 -47.453125 30.28125 -42.015625 L 30.28125 -34.859375 C 30.28125 -29.421875 31.65625 -25.097656 34.40625 -21.890625 C 37.164062 -18.691406 41.191406 -17.09375 46.484375 -17.09375 C 51.773438 -17.09375 55.816406 -18.691406 58.609375 -21.890625 C 61.398438 -25.097656 62.796875 -29.421875 62.796875 -34.859375 L 62.796875 -42.015625 C 62.796875 -47.453125 61.398438 -51.769531 58.609375 -54.96875 C 55.816406 -58.175781 51.773438 -59.78125 46.484375 -59.78125 Z M 46.484375 -59.78125 " style="fill: rgb(154, 228, 215);"/>
      </g>
    </g>
  </g>
  <g fill="#eeeeee" fill-opacity="1" transform="matrix(0.091827, 0, 0, 0.079196, 9.360555, 3.611223)" style="">
    <g transform="translate(538.302489, 237.033129)">
      <g>
        <path d="M 44.921875 -78.21875 C 56.316406 -78.21875 65.328125 -75.367188 71.953125 -69.671875 C 78.585938 -63.972656 81.90625 -55.832031 81.90625 -45.25 L 58.328125 -45.25 C 58.328125 -49.71875 57.148438 -53.253906 54.796875 -55.859375 C 52.453125 -58.472656 49.125 -59.78125 44.8125 -59.78125 C 39.8125 -59.78125 36.140625 -58.210938 33.796875 -55.078125 C 31.453125 -51.953125 30.28125 -47.597656 30.28125 -42.015625 L 30.28125 -34.859375 C 30.28125 -29.347656 31.453125 -25.007812 33.796875 -21.84375 C 36.140625 -18.675781 39.734375 -17.09375 44.578125 -17.09375 C 49.347656 -17.09375 52.960938 -18.320312 55.421875 -20.78125 C 57.878906 -23.238281 59.109375 -26.703125 59.109375 -31.171875 L 81.90625 -31.171875 C 81.90625 -20.671875 78.679688 -12.625 72.234375 -7.03125 C 65.796875 -1.445312 56.691406 1.34375 44.921875 1.34375 C 31.804688 1.34375 21.878906 -2.003906 15.140625 -8.703125 C 8.398438 -15.410156 5.03125 -25.320312 5.03125 -38.4375 C 5.03125 -51.550781 8.398438 -61.457031 15.140625 -68.15625 C 21.878906 -74.863281 31.804688 -78.21875 44.921875 -78.21875 Z M 44.921875 -78.21875 " style="fill: rgb(154, 228, 215);"/>
      </g>
    </g>
  </g>
  <g fill="#eeeeee" fill-opacity="1" transform="matrix(0.091827, 0, 0, 0.079196, 9.360555, 3.611223)" style="">
    <g transform="translate(625.22019, 237.033129)">
      <g>
        <path d="M 60.34375 -76.875 L 90.953125 -76.875 L 63.359375 -45.25 L 91.515625 0 L 62.34375 0 L 46.375 -28.15625 L 32.96875 -17.203125 L 32.96875 0 L 8.265625 0 L 8.265625 -76.875 L 32.96875 -76.875 L 32.96875 -44.015625 Z M 60.34375 -76.875 " style="fill: rgb(154, 228, 215);"/>
      </g>
    </g>
  </g>
</svg>