<?xml version="1.0" encoding="utf-8"?>
<svg width="14" height="14" viewBox="0 0 14 14" fill="none" xmlns="http://www.w3.org/2000/svg">
  <defs>
    <clipPath id="75277ac8ff">
      <path d="M 7.910156 46.070312 L 249.546875 46.070312 L 249.546875 288.652344 L 7.910156 288.652344 Z M 7.910156 46.070312 " clip-rule="nonzero"/>
    </clipPath>
    <clipPath id="d593667348">
      <path d="M 27.363281 46.070312 L 230.09375 46.070312 C 240.835938 46.070312 249.546875 54.78125 249.546875 65.523438 L 249.546875 268.941406 C 249.546875 279.6875 240.835938 288.394531 230.09375 288.394531 L 27.363281 288.394531 C 16.621094 288.394531 7.910156 279.6875 7.910156 268.941406 L 7.910156 65.523438 C 7.910156 54.78125 16.621094 46.070312 27.363281 46.070312 Z M 27.363281 46.070312 " clip-rule="nonzero"/>
    </clipPath>
  </defs>
  <text style="font-size: 36; font-family: Roboto; white-space: pre;" x="-213.26" y="18.591">color(srgb 3.14% 73.7% 62%)</text>
  <g clip-path="url(#75277ac8ff)" transform="matrix(0.039539, 0, 0, 0.046756, 1.776348, -1.009122)" style="">
    <g clip-path="url(#d593667348)">
      <path d="M 7.910156 46.070312 L 249.546875 46.070312 L 249.546875 288.652344 L 7.910156 288.652344 Z M 7.910156 46.070312 " fill-opacity="1" fill-rule="nonzero" style="fill: rgb(255, 255, 255);"/>
    </g>
  </g>
  <g fill="#ffffff" fill-opacity="1" transform="matrix(0.039539, 0, 0, 0.046756, 1.776348, -1.009122)" style="">
    <g transform="translate(30.817129, 203.562669)">
      <g>
        <path d="M 35.625 0 L 7.484375 0 L 7.484375 -67.09375 L 84.578125 -67.09375 L 84.578125 -50.5 L 35.625 -50.5 L 35.625 -39.96875 L 77 -39.96875 L 77 -27.0625 L 35.625 -27.0625 Z M 35.625 0 " style="fill: rgb(189, 241, 232);"/>
      </g>
    </g>
  </g>
  <g fill="#ffffff" fill-opacity="1" transform="matrix(0.039539, 0, 0, 0.046756, 1.776348, -1.009122)" style="">
    <g transform="translate(119.120297, 203.562669)">
      <g>
        <path d="M 55.59375 0 L 7.484375 0 L 7.484375 -67.046875 L 56.625 -67.046875 C 65.34375 -67.046875 72.523438 -66.644531 78.171875 -65.84375 C 83.816406 -65.050781 88.164062 -63.804688 91.21875 -62.109375 C 94.269531 -60.410156 96.335938 -58.25 97.421875 -55.625 C 98.515625 -53.007812 99.0625 -49.878906 99.0625 -46.234375 C 98.96875 -43.367188 98.179688 -40.992188 96.703125 -39.109375 C 95.222656 -37.222656 93.492188 -35.816406 91.515625 -34.890625 C 89.535156 -33.972656 87.800781 -33.515625 86.3125 -33.515625 C 87.769531 -33.515625 89.476562 -33.226562 91.4375 -32.65625 C 93.40625 -32.082031 95.316406 -31.25 97.171875 -30.15625 C 99.023438 -29.0625 100.566406 -27.734375 101.796875 -26.171875 C 103.035156 -24.617188 103.65625 -22.847656 103.65625 -20.859375 C 103.65625 -18.234375 103.347656 -15.828125 102.734375 -13.640625 C 102.128906 -11.460938 100.914062 -9.53125 99.09375 -7.84375 C 97.269531 -6.164062 94.582031 -4.742188 91.03125 -3.578125 C 87.476562 -2.410156 82.828125 -1.519531 77.078125 -0.90625 C 71.328125 -0.300781 64.164062 0 55.59375 0 Z M 54 -39.265625 C 58.113281 -39.265625 61.300781 -39.46875 63.5625 -39.875 C 65.820312 -40.28125 67.382812 -40.894531 68.25 -41.71875 C 69.125 -42.550781 69.5625 -43.609375 69.5625 -44.890625 C 69.5625 -46.191406 69.125 -47.253906 68.25 -48.078125 C 67.382812 -48.910156 65.820312 -49.519531 63.5625 -49.90625 C 61.300781 -50.300781 58.113281 -50.5 54 -50.5 L 35.625 -50.5 L 35.625 -39.265625 Z M 54 -16.546875 C 58.207031 -16.546875 61.617188 -16.65625 64.234375 -16.875 C 66.859375 -17.09375 68.773438 -17.59375 69.984375 -18.375 C 71.203125 -19.15625 71.8125 -20.414062 71.8125 -22.15625 C 71.8125 -23.90625 71.203125 -25.175781 69.984375 -25.96875 C 68.773438 -26.757812 66.859375 -27.253906 64.234375 -27.453125 C 61.617188 -27.660156 58.207031 -27.765625 54 -27.765625 L 35.625 -27.765625 L 35.625 -16.546875 Z M 54 -16.546875 " style="fill: rgb(189, 241, 232);"/>
      </g>
    </g>
  </g>
</svg>